<?xml version="1.0" encoding="utf-8" ?>
<svg xmlns="http://www.w3.org/2000/svg" xmlns:xlink="http://www.w3.org/1999/xlink" width="64" height="64">
	<path fill="#FEFEFE" transform="scale(0.0625 0.0625)" d="M0 0L1024 0L1024 1024L0 1024L0 0Z"/>
	<path fill="#C33445" transform="scale(0.0625 0.0625)" d="M159.934 230.771C164.204 230.816 168.279 230.796 172.158 232.867C164.042 243.431 155.174 253.626 147.886 264.784C112.987 318.221 78.3472 403.711 75.4939 467.967C71.7622 469.774 67.916 472.007 64.0221 473.389C64.8116 457.957 67.4077 442.754 70.4629 427.623Q72.5476 417.275 75.0786 407.028Q77.6096 396.78 80.5821 386.652Q83.5547 376.524 86.9632 366.534Q90.3716 356.544 94.2097 346.711Q98.0477 336.878 102.308 327.22Q106.569 317.563 111.243 308.099Q115.918 298.635 120.998 289.382Q126.079 280.13 131.555 271.106C140.159 256.98 150.581 244.343 159.934 230.771Z"/>
	<path fill="#C33445" transform="scale(0.0625 0.0625)" d="M266.259 143.44C323.887 103.674 390.937 81.0958 460.2 73.1492C471.077 71.9012 482.002 70.4314 492.95 70.0624C506.802 69.5956 520.692 70.2915 534.513 71.1867C547.494 72.0276 560.559 72.7209 573.373 75.0663C580.952 76.4536 588.457 78.2375 596.037 79.6155C602.302 80.7543 608.671 81.4681 614.85 83.0311Q624.204 85.3902 633.443 88.1675Q642.682 90.9449 651.786 94.1348Q660.891 97.3248 669.843 100.921Q678.795 104.517 687.576 108.512Q696.357 112.507 704.95 116.893Q713.542 121.279 721.929 126.046Q730.316 130.814 738.48 135.954Q746.643 141.094 754.568 146.596C761.184 151.173 768.022 155.706 774.277 160.77C780.286 165.634 785.875 171.155 791.543 176.414C817.773 200.748 838.516 224.476 858.785 253.918C866.058 264.482 874.912 276.619 879.496 288.684C875.107 287.948 870.672 287.496 866.252 286.987C855.677 265.968 841.869 247.284 827.192 228.95Q824.449 225.572 821.634 222.255Q818.818 218.938 815.931 215.683Q813.044 212.427 810.087 209.235Q807.13 206.044 804.104 202.917Q801.078 199.79 797.986 196.73Q794.893 193.669 791.734 190.677Q788.575 187.685 785.352 184.762Q782.129 181.839 778.844 178.986Q775.558 176.134 772.211 173.353Q768.864 170.573 765.458 167.866Q762.051 165.159 758.587 162.527Q755.122 159.895 751.602 157.338Q748.081 154.782 744.505 152.303Q740.93 149.823 737.301 147.422Q733.672 145.021 729.992 142.7Q726.313 140.378 722.583 138.137Q718.854 135.896 715.076 133.736Q711.299 131.576 707.476 129.499Q703.652 127.422 699.785 125.429Q695.917 123.436 692.007 121.527Q688.098 119.618 684.147 117.794Q680.197 115.97 676.207 114.233Q672.218 112.496 668.192 110.846Q664.166 109.195 660.106 107.633Q656.045 106.071 651.951 104.597Q647.857 103.123 643.732 101.739Q639.607 100.354 635.453 99.0595Q631.299 97.765 627.118 96.561Q622.937 95.357 618.731 94.2441Q614.524 93.1312 610.295 92.11Q606.065 91.0888 601.815 90.1597Q597.564 89.2306 593.294 88.3941C576.923 85.0223 560.032 83.2555 543.422 81.4209C520.733 78.9151 497.955 80.3852 475.283 82.2455C458.493 83.6232 441.66 85.2321 425.135 88.6083C417.192 90.2311 409.328 92.5381 401.503 94.6586C355.494 107.127 305.472 125.949 267.91 156.096Q266.928 149.788 266.259 143.44Z"/>
	<path fill="#C33445" transform="scale(0.0625 0.0625)" d="M915.917 473.847L925.079 471.394C927.788 491.645 930.784 511.496 931.352 531.968Q931.475 538.542 931.389 545.117Q931.302 551.692 931.006 558.26Q930.711 564.829 930.206 571.385Q929.701 577.941 928.987 584.477Q928.273 591.014 927.352 597.524Q926.431 604.035 925.302 610.513Q924.174 616.99 922.839 623.429Q921.505 629.868 919.966 636.26Q918.428 642.653 916.686 648.994Q914.944 655.334 913.002 661.616Q911.059 667.898 908.917 674.114Q906.775 680.331 904.436 686.476Q902.098 692.622 899.564 698.689Q897.031 704.757 894.305 710.741Q891.58 716.725 888.665 722.619Q885.75 728.513 882.649 734.311C871.146 755.379 857.337 775.056 842.787 794.11C822.938 820.105 800.579 844.582 775.265 865.369C760.665 877.358 744.745 887.771 728.461 897.305C678.444 926.589 628.436 943.072 571.063 950.699C548.119 953.749 524.736 953.208 501.63 953.542C498.019 948.185 493.214 943.883 489.183 938.862C503.18 941.618 537.988 940.932 552.628 939.539C556.005 939.526 559.225 939.33 562.573 938.884C570.481 940.084 580 936.807 587.822 935.531C647 925.877 696.731 904.605 747.338 872.971C750.282 871.195 752.883 869.115 755.549 866.952Q762.045 861.715 768.614 856.57C772.318 854.208 775.438 851.249 778.478 848.103C783.908 842.681 789.886 837.759 795.416 832.416C811.104 817.258 825.748 801 837.978 782.898C841.057 778.34 844.891 773.284 846.997 768.204C847.175 768.156 847.361 768.133 847.529 768.06C851.366 766.39 854.545 758.671 856.195 755.031C859.919 748.994 863.993 743.176 867.57 737.046C872.988 727.763 877.749 718.086 882.596 708.496C884.893 704.777 886.116 700.178 887.454 696.036C890.39 690.414 892.35 683.897 894.527 677.923C902.842 655.093 909.712 631.969 913.209 607.876C915.172 603.533 915.674 598.367 916.168 593.681Q918.423 579.97 919.331 566.104Q920.238 552.237 919.79 538.349C920.834 533.505 920.405 528.769 919.61 523.928C921.12 519.696 916.208 482.389 915.917 473.847Z"/>
	<path fill="#203973" transform="scale(0.0625 0.0625)" d="M174.756 61.4298C187.481 65.0117 199.517 68.6915 211.204 75.1203Q212.439 75.7939 213.658 76.4977Q214.876 77.2014 216.077 77.9349Q217.277 78.6684 218.46 79.4312Q219.642 80.194 220.805 80.9856Q221.969 81.7772 223.112 82.5971Q224.255 83.4171 225.378 84.2649Q226.501 85.1127 227.603 85.9879Q228.705 86.863 229.785 87.765Q230.865 88.667 231.922 89.5952Q232.979 90.5234 234.014 91.4774Q235.048 92.4313 236.058 93.4104Q237.069 94.3895 238.055 95.3931Q239.041 96.3967 240.002 97.4243Q240.964 98.4518 241.899 99.5027Q242.835 100.554 243.744 101.627Q244.654 102.701 245.537 103.796Q246.42 104.892 247.275 106.009Q248.131 107.126 248.959 108.263Q249.787 109.401 250.587 110.559Q251.386 111.716 252.157 112.893Q252.928 114.07 253.67 115.266Q254.412 116.461 255.124 117.675Q255.837 118.888 256.519 120.119Q257.201 121.349 257.853 122.596Q258.505 123.843 259.126 125.106Q259.747 126.368 260.336 127.646Q260.926 128.923 261.484 130.215Q262.043 131.506 262.569 132.811Q263.095 134.116 263.589 135.434Q264.083 136.751 264.545 138.08Q265.006 139.409 265.435 140.75Q265.863 142.09 266.259 143.44Q266.928 149.788 267.91 156.096C268.41 168.086 265.796 182.255 257.408 191.376C255.767 193.161 253.943 194.77 252.128 196.375Q235.382 214.168 216.495 229.67L211.821 234.356C202.565 232.939 179.475 227.841 172.158 232.867C168.279 230.796 164.204 230.816 159.934 230.771C141.698 229.547 114.759 234.627 97.453 240.35C88.7098 243.242 80.3199 247.058 71.8899 250.741C79.9684 234.834 92.0768 220.514 105.956 209.348C130.277 189.782 158.051 180.505 189.198 183.925C152.515 149.474 120.012 136.144 70.6665 127.592Q74.2105 125.878 77.8512 124.379Q81.492 122.881 85.2163 121.605Q88.9406 120.329 92.7351 119.28Q96.5295 118.23 100.38 117.411Q104.231 116.591 108.124 116.005Q112.017 115.419 115.938 115.069Q119.86 114.718 123.795 114.605Q127.73 114.491 131.665 114.614C166.021 116.032 196.346 129.732 219.635 154.898C219.133 130.02 205.333 104.252 191.405 84.1211C186.067 76.405 180.103 69.1454 174.756 61.4298Z"/>
	<path fill="#8EC9DF" transform="scale(0.0625 0.0625)" d="M195.352 77.4837Q198.494 79.006 201.545 80.7036Q204.596 82.4012 207.546 84.2687Q210.496 86.1362 213.335 88.1676Q216.175 90.1989 218.895 92.3877Q221.615 94.5764 224.207 96.9156Q226.799 99.2547 229.255 101.737Q231.71 104.219 234.021 106.836Q236.333 109.453 238.492 112.196C251.866 129.245 262.307 154.11 257.994 176.103C256.734 182.523 252.755 188.996 252.19 195.379C252.161 195.711 252.149 196.043 252.128 196.375Q235.382 214.168 216.495 229.67C182.584 214.766 135.327 218.826 100.316 229.004C108.414 220.942 117.146 213.452 127.098 207.76Q129.004 206.662 130.959 205.651Q132.913 204.641 134.912 203.721Q136.91 202.8 138.948 201.972Q140.986 201.143 143.06 200.408Q145.134 199.673 147.239 199.033Q149.344 198.393 151.475 197.85Q153.607 197.306 155.762 196.86Q157.916 196.414 160.089 196.067Q162.261 195.719 164.447 195.471Q166.633 195.223 168.829 195.074Q171.024 194.925 173.223 194.877Q175.423 194.828 177.622 194.88Q179.822 194.931 182.017 195.083Q184.212 195.234 186.397 195.485Q188.583 195.737 190.755 196.087Q192.927 196.437 195.081 196.886C203.325 198.681 211.277 201.856 219.437 204.044C215.363 197.408 210.162 191.292 204.962 185.503Q201.192 181.285 197.195 177.281Q193.198 173.278 188.986 169.502Q184.774 165.725 180.359 162.187Q175.945 158.649 171.342 155.361Q166.738 152.072 161.96 149.043Q157.183 146.014 152.245 143.254Q147.307 140.493 142.224 138.01Q137.14 135.527 131.928 133.328C125.665 130.64 119.079 129.665 112.862 127.233L112.582 126.521C112.714 126.435 112.838 126.335 112.978 126.264C114.785 125.347 117.736 125.42 119.752 125.315C134.6 124.543 149.564 127.202 163.692 131.693C196.311 142.06 217.48 166.434 232.696 195.954C233.827 190.032 234.68 184.119 234.812 178.08C235.442 149.417 224.645 116.018 208.175 92.4353C204.381 87.003 199.923 82.2511 195.352 77.4837Z"/>
	<path fill="#203973" transform="scale(0.0625 0.0625)" d="M267.91 156.096C305.472 125.949 355.494 107.127 401.503 94.6586C409.328 92.5381 417.192 90.2311 425.135 88.6083C441.66 85.2321 458.493 83.6232 475.283 82.2455C497.955 80.3852 520.733 78.9151 543.422 81.4209C560.032 83.2555 576.923 85.0223 593.294 88.3941Q597.564 89.2306 601.815 90.1597Q606.065 91.0888 610.295 92.11Q614.524 93.1312 618.731 94.2441Q622.937 95.357 627.118 96.561Q631.299 97.765 635.453 99.0595Q639.607 100.354 643.732 101.739Q647.857 103.123 651.951 104.597Q656.045 106.071 660.106 107.633Q664.166 109.195 668.192 110.846Q672.218 112.496 676.207 114.233Q680.197 115.97 684.147 117.794Q688.098 119.618 692.008 121.527Q695.917 123.436 699.785 125.429Q703.652 127.422 707.476 129.499Q711.299 131.576 715.076 133.736Q718.854 135.896 722.583 138.137Q726.313 140.378 729.992 142.7Q733.672 145.021 737.301 147.422Q740.93 149.823 744.505 152.303Q748.081 154.782 751.602 157.338Q755.122 159.895 758.587 162.527Q762.051 165.159 765.458 167.866Q768.864 170.573 772.211 173.353Q775.558 176.134 778.844 178.986Q782.129 181.839 785.352 184.762Q788.575 187.685 791.734 190.677Q794.893 193.669 797.986 196.73Q801.078 199.79 804.104 202.917Q807.13 206.044 810.087 209.236Q813.044 212.427 815.931 215.683Q818.818 218.938 821.633 222.255Q824.449 225.572 827.192 228.95C841.869 247.284 855.677 265.968 866.252 286.987C870.672 287.496 875.107 287.948 879.496 288.684C886.471 291.629 893.922 292.446 901.316 293.772C909.052 295.16 916.696 296.963 924.37 298.648C947.661 303.76 960.576 309.701 970.151 333.209C981.757 361.704 978.898 396.709 966.971 424.585C959.687 441.608 949.405 455.82 933.862 466.14C931.112 467.965 928.107 470.08 925.079 471.394L915.917 473.847C916.208 482.389 921.12 519.696 919.61 523.928C920.405 528.769 920.834 533.505 919.79 538.349Q920.238 552.237 919.331 566.104Q918.423 579.97 916.168 593.681C915.674 598.367 915.172 603.533 913.209 607.876C909.712 631.969 902.842 655.093 894.527 677.923C892.35 683.897 890.39 690.414 887.454 696.036C886.116 700.178 884.893 704.777 882.596 708.496C877.749 718.086 872.988 727.763 867.57 737.046C863.993 743.176 859.919 748.994 856.195 755.031C854.545 758.671 851.366 766.39 847.529 768.06C847.361 768.133 847.175 768.156 846.997 768.204C844.891 773.284 841.057 778.34 837.978 782.898C825.748 801 811.104 817.258 795.416 832.416C789.886 837.759 783.908 842.681 778.478 848.103C775.438 851.249 772.318 854.208 768.614 856.57Q762.045 861.715 755.549 866.952C752.883 869.115 750.282 871.195 747.338 872.971C696.731 904.605 647 925.877 587.822 935.531C580 936.807 570.481 940.084 562.573 938.884C559.225 939.33 556.005 939.526 552.628 939.539C537.988 940.932 503.18 941.618 489.183 938.862C493.214 943.883 498.019 948.185 501.63 953.542C503.449 956.014 505.223 958.527 507.253 960.833C501.885 961.257 496.599 961.494 491.215 961.496C471.65 961.695 451.883 955.461 433.82 948.464C435.731 953.517 437.836 958.41 440.391 963.175C428.583 961.587 416.974 959.733 405.499 956.451C392.131 954.301 377.035 947.81 365.1 941.364C359.952 938.584 355.195 935.018 349.826 932.669L349.172 932.388C350.832 940.829 353.941 949.25 356.549 957.452C319.675 947.681 299.017 928.095 273.501 901.719C276.065 916.729 280.433 930.543 285.927 944.72C261.623 935.658 242.299 920.475 225.672 900.813C221.364 895.719 217.717 889.981 213.228 885.068L212.946 884.764Q215.563 903.41 220.459 921.59C188.921 908.292 169.907 879.497 154.653 850.443C151.524 861.782 152.283 873.597 152.477 885.229C128.776 870.262 117.589 845.063 110.126 819.174C106.228 825.081 103.48 831.738 100.532 838.15Q99.388 836.393 98.3624 834.565C70.6245 784.86 75.3078 722.725 90.4657 669.959C86.1094 663.377 84.108 654.323 81.8033 646.803C71.0464 611.705 63.9848 576.47 61.3817 539.822C58.5865 534.704 55.3849 529.822 52.6511 524.655C46.8337 513.662 42.7846 502.304 39.2755 490.4C46.6076 482.988 54.5882 477.797 64.0221 473.389C67.916 472.007 71.7622 469.774 75.4939 467.967C78.3472 403.711 112.987 318.221 147.886 264.784C155.174 253.626 164.042 243.431 172.158 232.867C179.475 227.841 202.565 232.939 211.821 234.356L216.495 229.67Q235.382 214.168 252.128 196.375C253.943 194.77 255.767 193.161 257.408 191.376C265.796 182.255 268.41 168.086 267.91 156.096Z"/>
	<path fill="#BFDEE8" transform="scale(0.0625 0.0625)" d="M769.069 778.103C771.401 781.575 773.773 785.014 775.784 788.686L764.979 787.169C764.955 785.88 764.823 784.416 765.038 783.145C765.465 780.622 767.19 779.588 769.069 778.103Z"/>
	<path fill="#FEFEFE" transform="scale(0.0625 0.0625)" d="M514.333 338.343C515.92 338.49 517.554 338.626 518.788 339.759C519.847 340.73 520.463 341.795 520.497 343.247C520.57 346.316 518.887 348.139 516.827 350.17C515.241 350.015 513.368 349.657 512.177 348.506C511.083 347.448 510.69 346.501 510.622 344.987C510.491 342.109 512.442 340.201 514.333 338.343Z"/>
	<path fill="#E45B5A" transform="scale(0.0625 0.0625)" d="M785.446 286.366C789.989 289.736 794.404 293.32 798.87 296.794C793.515 298.635 788.05 300.234 782.648 301.936C778.674 302.931 774.728 304.056 770.775 305.13C776.142 299.184 780.813 292.881 785.446 286.366Z"/>
	<path fill="#E45B5A" transform="scale(0.0625 0.0625)" d="M859.099 424.362C859.247 424.483 859.414 424.583 859.542 424.726C863.61 429.283 863.682 439.088 866.273 444.744C867.211 446.791 868.879 448.753 870.19 450.601C871.76 452.812 875.94 457.544 875.763 460.178C869.817 457.553 863.879 454.968 857.818 452.616C858.948 443.233 858.979 433.797 859.099 424.362Z"/>
	<path fill="#8EC9DF" transform="scale(0.0625 0.0625)" d="M389.035 503.9L389.814 504.498C391.03 511.052 388.802 520.724 387.769 527.347C385.01 524.981 381.762 522.997 378.768 520.925C376.018 518.909 373.418 516.673 370.789 514.502C376.956 511.159 382.913 507.348 389.035 503.9Z"/>
	<path fill="#C33445" transform="scale(0.0625 0.0625)" d="M346.237 922.202C357.027 927.164 366.723 934.463 377 940.401C382.749 943.722 401.863 953.044 405.499 956.451C392.131 954.301 377.035 947.81 365.1 941.364C359.952 938.584 355.195 935.018 349.826 932.669L349.172 932.388C348.31 928.94 347.428 925.553 346.237 922.202Z"/>
	<path fill="#E45B5A" transform="scale(0.0625 0.0625)" d="M776.449 310.095L776.747 310.268C777.195 311.544 776.063 312.664 775.246 313.62C766.467 323.897 762.164 331.417 757.05 344.118C753.465 342.627 749.892 341.606 746.134 340.647L742.159 339.673C743.985 334.854 746.17 330.013 748.896 325.631C755.807 314.521 764.647 312.858 776.449 310.095Z"/>
	<path fill="#FCBF5D" transform="scale(0.0625 0.0625)" d="M870.158 360.312C873.657 362.156 877.782 363.465 881.475 364.932C879.589 371.347 877.322 377.995 876.611 384.664C876.015 390.264 876.794 396.058 875.328 401.549C871.34 401.477 867.551 401.258 863.614 400.589C861.677 387.789 865.517 372.18 870.158 360.312Z"/>
	<path fill="#C33445" transform="scale(0.0625 0.0625)" d="M426.003 935.697C434.23 938.95 442.498 942.539 450.925 945.223C462.556 948.928 475.858 951.46 486.675 957.114C488.87 958.261 490.167 959.212 491.215 961.496C471.65 961.695 451.883 955.461 433.82 948.464L426.003 935.697Z"/>
	<path fill="#FCBF5D" transform="scale(0.0625 0.0625)" d="M739.438 303.042C744.3 305.334 748.843 307.305 754.13 308.354C750.052 314.476 745.018 319.981 741.102 326.217C738.824 329.844 738.312 335.223 735.117 338.1C733.941 339.159 731.514 338.792 729.978 338.767C725.901 339.611 721.399 340.978 717.241 340.941L716.56 340.097C715.863 332.763 729.534 318.37 733.974 312.22C736.1 309.276 737.855 306.307 739.438 303.042Z"/>
	<path fill="#FCBF5D" transform="scale(0.0625 0.0625)" d="M679.398 404.742C685.58 406.914 691.719 409.093 698.056 410.773C694.696 423.097 693.41 435.385 691.826 448.001C685.714 444.522 678.976 442.1 672.432 439.573C672.543 427.466 675.179 416.031 679.398 404.742Z"/>
	<path fill="#FCBF5D" transform="scale(0.0625 0.0625)" d="M671.931 445.632C678.596 448.146 685.53 450.437 691.922 453.578C692.291 474.63 696.333 481.216 704.436 499.707C698.422 499.792 690.935 496.618 686.549 492.658C674.94 482.177 672.673 460.28 671.931 445.632Z"/>
	<path fill="#E45B5A" transform="scale(0.0625 0.0625)" d="M76.092 556.095C79.8315 558.981 83.1908 561.089 83.8855 566.083C84.5697 571.003 83.4111 575.989 83.8698 580.917C85.3081 596.369 96.6776 611.873 107.483 622.403C103.845 631.573 100.555 640.8 97.324 650.117C96.876 649.685 96.7059 649.552 96.3399 649.102C89.8342 641.107 78.5229 583.013 76.7858 570.02C76.1619 565.353 75.7498 560.799 76.092 556.095Z"/>
	<path fill="#FCBF5D" transform="scale(0.0625 0.0625)" d="M856.488 294.661C860.558 295.895 865.088 295.899 869.304 296.108C864.09 298.977 858.636 301.657 853.963 305.376C837.886 318.174 826.805 340.69 819.998 359.78C815.642 357.444 811.986 355.908 807.023 355.305C808.849 345.045 814.197 335.009 819.768 326.329C828.773 312.3 839.388 298.369 856.488 294.661Z"/>
	<path fill="#E45B5A" transform="scale(0.0625 0.0625)" d="M568.461 489.948C576.23 491.016 582.504 495.221 587.861 500.71C588.811 509.345 590.106 517.857 592.096 526.316C593.186 530.948 600.356 550.936 599.326 553.71L598.599 553.495L598.378 554.048L599.207 553.798C596.946 552.428 595.271 550.2 593.515 548.25C584.143 537.699 562.527 514.775 557.204 502.206C556.529 500.613 556.127 499.182 556.866 497.516C558.724 493.332 564.577 491.565 568.461 489.948Z"/>
	<path fill="#FCBF5D" transform="scale(0.0625 0.0625)" d="M734.115 345.683C734.33 345.647 734.543 345.593 734.76 345.576C737.582 345.351 747.252 346.178 749.212 348.016C748.071 350.759 738.808 353.357 735.992 355.109C732.944 357.004 730.124 359.443 727.517 361.895Q724.512 364.716 721.763 367.787Q719.013 370.858 716.54 374.154Q714.066 377.451 711.887 380.95Q709.708 384.448 707.839 388.122C705.93 391.848 701.628 403.519 699.235 405.893L697.863 405.513C692.363 403.054 686.689 401.245 680.953 399.441C685.118 389.528 689.949 380.222 696.521 371.671C705.923 359.435 718.22 347.703 734.115 345.683Z"/>
	<path fill="#C33445" transform="scale(0.0625 0.0625)" d="M61.3817 539.822C66.1577 545.448 71.0194 550.736 76.092 556.095C75.7498 560.799 76.1619 565.353 76.7858 570.02C78.5229 583.013 89.8342 641.107 96.3399 649.102C96.7059 649.552 96.876 649.685 97.324 650.117C94.9384 656.677 92.3079 663.224 90.4657 669.959C86.1094 663.377 84.108 654.323 81.8033 646.803C71.0464 611.705 63.9848 576.47 61.3817 539.822Z"/>
	<path fill="#E45B5A" transform="scale(0.0625 0.0625)" d="M698.685 455.686C710.399 458.343 721.689 463.173 733.281 466.386C736.625 487.183 738.276 498.14 750.188 516.171C743.747 515.641 738.358 512.016 732.466 509.729C726.491 507.409 719.599 506.232 714.655 501.902C703.56 492.186 699.773 469.557 698.685 455.686Z"/>
	<path fill="#E45B5A" transform="scale(0.0625 0.0625)" d="M621.337 423.897C626.946 426.302 632.241 429.34 637.937 431.634C646.694 435.161 656.904 437.6 664.964 442.486C662.343 457.516 669.068 474.306 675.077 487.771C674.771 487.819 674.469 487.896 674.16 487.915C669.236 488.224 647.849 474.3 643.64 470.849C629.652 459.382 623.019 441.475 621.337 423.897Z"/>
	<path fill="#8EC9DF" transform="scale(0.0625 0.0625)" d="M672.626 734.432C674.091 736.507 675.576 738.68 676.749 740.936C678.516 744.335 679.992 750.221 683.12 752.486C683.736 752.933 684.385 753.278 684.847 753.898C688.126 758.296 690.885 763.7 693.825 768.387Q701.695 781.147 710.874 793Q727.48 814.447 746.514 833.773C753.744 841.181 762.712 848.114 768.614 856.57Q762.045 861.715 755.549 866.952C724.545 835.957 702.335 800.427 684.018 760.873C680.03 752.261 675.416 743.51 672.626 734.432Z"/>
	<path fill="#E45B5A" transform="scale(0.0625 0.0625)" d="M828.313 298.198C829.654 298.043 830.766 297.928 832.111 298.194C831.814 299.034 832.015 298.766 831.398 299.376C815.974 314.633 807.376 333.228 798.991 352.86C791.606 350.326 784.071 348.909 776.389 347.604C772.716 346.627 769.088 346.232 765.31 345.906C768.505 336.147 772.719 327.389 779.178 319.348C792.072 303.293 808.83 300.36 828.313 298.198Z"/>
	<path fill="#FCBF5D" transform="scale(0.0625 0.0625)" d="M923.93 309.127C927.029 308.95 930.66 309.272 933.742 309.726C942.59 311.028 949.394 316.801 954.579 323.756C965.719 338.697 970.824 360.219 968.2 378.595C964.568 378.33 961.107 378.064 957.484 378.548C957.339 374.931 957.836 371.324 957.924 367.707Q957.97 364.489 957.729 361.28Q957.489 358.071 956.965 354.896Q956.44 351.721 955.636 348.605Q954.831 345.489 953.753 342.457C950.327 333.094 944.611 327.374 935.64 323.14C930.528 321.056 925.377 320.744 920.031 322.167C901.719 327.042 891.876 344.534 883.064 359.703C879.541 358.13 876.114 356.233 872.672 354.484Q874.138 350.053 876.138 345.837Q878.138 341.62 880.641 337.682C890.488 322.373 906.3 312.859 923.93 309.127Z"/>
	<path fill="#FCBF5D" transform="scale(0.0625 0.0625)" d="M957.814 384.332C960.999 385.242 964.362 385.582 967.639 386.054C965.953 402.785 960.767 418.404 952.57 433.091C944.502 447.548 931.865 460.545 915.5 465.098Q914.722 465.322 913.935 465.507Q913.147 465.692 912.352 465.837Q911.556 465.983 910.754 466.09Q909.952 466.197 909.146 466.264Q908.34 466.331 907.531 466.358Q906.723 466.385 905.914 466.372Q905.105 466.359 904.298 466.307Q903.491 466.254 902.687 466.162Q901.883 466.07 901.085 465.938Q900.287 465.807 899.496 465.636Q898.705 465.465 897.924 465.255Q897.143 465.046 896.373 464.798Q895.603 464.55 894.846 464.264Q894.089 463.979 893.347 463.656Q892.605 463.334 891.88 462.975Q891.155 462.617 890.448 462.223C876.959 454.574 870.701 439.262 866.708 425.079C865.452 418.994 864.17 412.925 863.208 406.786Q869.586 407.508 875.979 408.091C876.264 417.356 877.807 426.148 881.72 434.62C885.426 442.646 891.453 450.438 900.104 453.396C906.653 455.635 913.509 454.176 919.528 451.154C937.201 442.279 949.103 421.306 953.931 402.822C955.469 396.933 955.611 390.566 957.625 384.841C957.685 384.67 957.751 384.502 957.814 384.332Z"/>
	<path fill="#E45B5A" transform="scale(0.0625 0.0625)" d="M882.083 300.131C892.914 299.728 904.067 303.37 914.904 304.249C902.352 308.654 891.709 314.132 882.781 324.221C862.176 347.504 855.985 378.685 857.801 408.879L857.729 410.898C855.935 407.912 855.748 401.632 854.881 398.047C851.279 383.142 839.348 370.732 827.502 361.841C830.521 356.235 832.37 350.304 834.807 344.454C837.226 338.644 840.391 333.19 843.943 328.003C853.129 314.593 865.721 303.251 882.083 300.131Z"/>
	<path fill="#FEFEFE" transform="scale(0.0625 0.0625)" d="M651.884 281.623C655.402 281.253 658.505 281.6 661.866 282.735C669.857 285.432 675.28 291.894 678.861 299.253C686.464 314.873 687.01 331.71 681.481 347.998C672.089 346.07 662.737 343.886 653.366 341.854L651.255 336.126Q650.686 334.628 650.005 333.177C647.55 327.897 643.804 325.521 638.549 323.571C635.652 324.079 632.798 324.814 629.937 325.496C626.439 329.648 623.91 334.532 621.064 339.142C619.668 325.007 622.286 309.009 630.017 296.901C635.348 288.552 642.245 283.74 651.884 281.623Z"/>
	<path fill="#E45B5A" transform="scale(0.0625 0.0625)" d="M667.243 356.118Q671.094 355.996 674.945 356.129Q678.795 356.262 682.629 356.649Q686.462 357.037 690.262 357.677Q694.061 358.317 697.81 359.207C677.133 379.118 666.581 407.931 665.333 436.244C661.827 434.632 658.196 433.247 654.623 431.787Q637.785 425.656 620.551 420.748C620.368 406.673 623.081 392.105 630.543 379.999C638.628 366.883 652.583 359.641 667.243 356.118Z"/>
	<path fill="#FEFEFE" transform="scale(0.0625 0.0625)" d="M846.997 768.204C844.891 773.284 841.057 778.34 837.978 782.898C825.748 801 811.104 817.258 795.416 832.416C789.886 837.759 783.908 842.681 778.478 848.103C757.792 832.095 741.728 810.768 724.908 790.939C731.243 793.222 737.697 795.411 744.344 796.583C748.864 797.38 753.643 797.047 758.223 797.287C769.82 797.894 783.069 800.549 794.293 796.782C791.275 788.902 785.548 782.117 780.636 775.358C795.83 777.396 813.167 775.791 828.179 772.644C834.494 771.32 840.644 769.388 846.997 768.204Z"/>
	<path fill="#E45B5A" transform="scale(0.0625 0.0625)" d="M762.26 354.205C772.86 353.299 784.368 356.379 794.592 359.046Q786.881 363.634 779.26 368.369C756.63 382.667 741.268 409.689 736.615 435.707C735.124 444.042 735.597 452.921 733.742 461.103L732.813 461.186Q715.853 455.264 698.797 449.627C702.223 422.728 706.59 396.704 724.667 375.198C734.658 363.313 746.63 355.623 762.26 354.205Z"/>
	<path fill="#FCBF5D" transform="scale(0.0625 0.0625)" d="M807.829 365.606C815.014 364.991 821.454 366.393 827.562 370.234C839.64 377.829 846.207 392.563 849.173 406.004C856.044 437.144 847.764 472.234 830.721 498.69C822.005 512.221 809.34 523.777 793.193 527.194C782.795 529.394 771.998 525.011 763.396 519.245C747.836 508.814 743.552 489.331 740.194 472.131Q747.187 471.004 754.143 469.669C756.464 482.538 757.663 494.049 766.821 504.168C772.061 509.958 778.87 513.956 786.843 514.234C797.066 514.592 806.503 508.742 813.77 502.086Q817.108 498.816 820.03 495.169Q822.952 491.523 825.415 487.552C838.853 466.008 846.117 435.974 840.177 410.978C837.568 400.002 831.915 387.435 821.767 381.491C815.748 377.965 808.397 377.579 801.743 379.287C774.944 386.17 760.167 420.051 756.058 444.68C755.17 450.004 756.939 457.183 754.147 461.832C750.756 464.477 744.656 464.66 740.477 465.302C740.026 443.211 748.197 415.713 760.45 397.333C771.677 380.491 788.024 369.494 807.829 365.606Z"/>
	<path fill="#FEFEFE" transform="scale(0.0625 0.0625)" d="M524.323 276.642C530.33 276.059 537.045 278.135 542.113 281.299C553.354 288.317 560.82 301.951 563.702 314.588C566.901 328.615 566.971 348.022 558.834 360.525C552.1 370.872 534.916 378.878 523.269 381.492C529.574 373.424 531.605 366.503 532.017 356.374C531.997 356.046 531.981 355.718 531.957 355.39C531.297 346.285 527.826 335.814 520.554 329.878C516.744 326.769 511.93 324.983 506.985 325.549C502.068 326.112 497.899 328.824 494.854 332.65C489.58 339.275 488.203 346.525 489.217 354.786C487.875 351.713 486.948 348.727 486.34 345.435C483.229 328.6 485.756 308.76 495.757 294.544C503.09 284.121 511.853 278.757 524.323 276.642Z"/>
	<path fill="#FEFEFE" transform="scale(0.0625 0.0625)" d="M923.309 328.975C928.191 329.061 932.497 330.312 936.495 333.201C944.369 338.893 947.682 349.346 949.157 358.527C952.858 381.56 947.524 409.973 933.568 428.949C927.146 437.682 920.022 443.197 909.127 444.833C906.453 445.204 904.078 444.992 901.48 444.218C895.421 442.415 891.167 437.967 888.331 432.461C879.572 415.459 881.072 389.316 886.823 371.642C893.762 350.315 903.875 339.005 923.309 328.975Z"/>
	<path fill="#8EC9DF" transform="scale(0.0625 0.0625)" d="M939.523 350.984C940.658 351.268 941.476 351.651 942.236 352.575C945.972 357.113 944.805 378.008 944.128 384.084C942.325 400.261 935.625 420.2 922.359 430.637C918.201 433.908 912.221 436.579 906.817 435.729C905.047 435.451 903.183 434.699 902.288 433.031C901.732 431.997 901.793 430.839 902.169 429.758C903.157 426.918 905.955 425.749 908.507 424.666L909.205 424.375C905.986 419.549 903.749 415.115 901.892 409.61C900.969 406.445 900.305 403.008 900.354 399.699C900.378 398.023 900.617 397.163 901.822 396.004C902.198 396.021 902.598 395.922 902.949 396.056C905.108 396.883 908.434 411.466 910.013 414.582C911.466 417.449 913.51 419.574 915.717 421.853C929.029 402.621 931.657 381.231 931.39 358.434C930.101 359.388 928.764 360.553 927.353 361.32C926.241 361.926 925.129 362.291 923.874 361.938C923.681 360.855 923.589 361.294 924.082 360.313C926.706 355.085 934.39 352.764 939.523 350.984Z"/>
	<path fill="#FEFEFE" transform="scale(0.0625 0.0625)" d="M805.86 386.103C809.671 385.922 812.708 386.298 816.211 387.899C823.956 391.439 828.652 399.666 831.315 407.409C838.643 428.721 833.066 456.349 823.375 476.049C816.284 490.465 806.087 501.456 790.743 506.751C786.798 506.111 782.99 505.463 779.389 503.65C771.818 499.837 766.844 491.964 764.235 484.127C757.216 463.04 761.846 438.336 771.695 418.951C779.233 404.116 789.68 391.424 805.86 386.103Z"/>
	<path fill="#8EC9DF" transform="scale(0.0625 0.0625)" d="M806.993 391.58C810.466 391.443 813.781 392.182 816.648 394.207C822.036 398.015 824.308 404.841 825.487 411.062C829.817 433.905 826.268 460.918 812.853 480.276C809.614 484.95 804.381 491.909 798.397 492.779C795.833 493.152 793.34 492.281 791.38 490.625C785.705 485.83 784.782 476.503 784.109 469.622C784.083 468.361 784.155 467.257 784.996 466.25C785.578 465.555 785.426 465.785 786.465 465.685C790.889 469.439 788.809 479.374 793.471 483.474C794.573 484.443 794.843 484.316 796.198 484.15C798.501 482.566 799.841 479.712 801.087 477.28C810.486 458.925 816.591 433.553 810.097 413.374C808.579 414.543 807.055 415.779 805.432 416.799C803.942 417.736 802.48 418.304 800.722 417.873L800.437 416.866C802.788 411.072 809.663 406.704 814.493 402.963C812.525 399.67 807.452 395.271 806.993 391.58Z"/>
	<path fill="#FCBF5D" transform="scale(0.0625 0.0625)" d="M626.061 347.285C637.011 346.501 647.78 348.081 658.46 350.406C652.502 352.563 646.663 354.911 641.381 358.461C626.696 368.33 618.503 383.186 615.243 400.324Q611.089 403.425 606.558 405.945Q602.028 408.465 597.202 410.358C566.678 422.11 530.096 422.383 500.219 408.989C507.539 422.689 513.147 437.306 519.679 451.393C536.978 488.698 561.384 531.051 594.076 556.746C601.937 562.925 609.354 569.06 618.725 572.842C615.029 567.539 611.441 562.175 608.552 556.38C604.048 547.345 600.952 537.51 598.384 527.762C589.566 494.279 589.268 461.001 589.587 426.629C592.678 425.568 595.624 424.318 598.599 422.969L605.555 419.484C605.372 431.625 604.206 443.676 604.416 455.845C604.864 481.783 609.757 507.854 615.377 533.099C619.166 550.119 626.12 566.574 628.24 583.881C578.004 569.983 540.577 538.266 513.403 494.453Q510.367 489.544 507.568 484.497Q504.769 479.449 502.213 474.274Q499.658 469.099 497.351 463.808Q495.045 458.518 492.993 453.123Q490.94 447.728 489.147 442.242Q487.354 436.756 485.824 431.191Q484.294 425.626 483.031 419.994Q481.767 414.362 480.773 408.677C479.902 403.929 477.993 397.088 479.09 392.414C482.964 391.095 493.005 394.328 497.845 394.456C507.568 394.711 517.633 393.458 526.924 390.606C541.961 385.989 552.066 378.742 564.736 369.993C583.598 356.969 603.005 348.775 626.061 347.285Z"/>
	<path fill="#FEFEFE" transform="scale(0.0625 0.0625)" d="M856.248 460.413C875.086 467.551 895.192 477.775 915.917 473.847C916.208 482.389 921.12 519.696 919.61 523.928C895.224 553.775 860.435 576.855 823.741 588.535Q819.84 589.808 815.9 590.954Q811.959 592.1 807.983 593.116Q804.008 594.133 800.001 595.02Q795.994 595.906 791.961 596.662Q787.927 597.418 783.872 598.042Q779.816 598.665 775.741 599.157Q771.667 599.648 767.58 600.007Q763.492 600.365 759.394 600.59Q755.297 600.815 751.194 600.907Q747.092 600.998 742.988 600.956Q738.885 600.914 734.785 600.738Q730.685 600.562 726.593 600.253Q722.501 599.944 718.421 599.501Q714.342 599.059 710.279 598.484Q706.215 597.909 702.173 597.202Q698.131 596.495 694.114 595.656C686.718 594.06 678.513 592.86 671.755 589.362C674.908 577.004 679.897 565.124 683.536 552.877C688.145 537.367 691.025 521.882 694.113 506.034C700.431 507.789 706.665 510.476 712.831 512.72L746.066 524.707C755.194 528.049 764.24 531.636 773.625 534.213C787.166 537.931 800.12 536.306 812.346 529.256C837.628 514.676 849.041 487.264 856.248 460.413Z"/>
	<path fill="#E45B5A" transform="scale(0.0625 0.0625)" d="M168.67 460.211C177.245 459.607 186.282 460.435 194.82 461.312C278.486 469.909 346.039 507.313 413.627 554.959C430.652 566.96 447.582 578.621 463.916 591.574C478.123 602.841 499.064 616.404 510.215 630.117C502.96 627.532 496.099 621.921 489.644 617.785C478.912 610.909 468.073 604.017 456.983 597.736C443.797 590.268 430.558 582.475 416.963 575.781C363.936 549.674 288.014 522.99 228.625 523.472C198.611 523.401 157.438 529.094 132.967 547.109C125.29 552.761 117.03 561.171 115.688 571.027C114.488 579.838 118.235 587.608 123.32 594.471C119.376 600.519 116.21 606.965 112.962 613.401Q110.467 610.723 108.224 607.83Q105.981 604.938 104.009 601.854Q102.037 598.77 100.352 595.52Q98.6674 592.271 97.2835 588.882C93.8718 580.295 92.1413 571.226 96.0436 562.455C104.842 542.679 136.141 526.748 156.073 520.118C167.617 516.277 180.154 513.788 192.146 511.737C199.914 510.408 208.351 512.02 215.772 509.109C216.486 508.829 216.189 509.06 216.554 508.203L215.834 507.263C212.954 505.868 209.437 505.923 206.29 506C195.392 506.27 184.327 508.015 173.683 510.29C140.788 517.321 112.077 531.461 88.741 556.182C73.4005 535.7 58.7059 519.563 50.1931 494.715C57.4313 488.875 66.2327 484.355 74.6548 480.423C107.412 465.127 133.152 462.556 168.67 460.211Z"/>
	<path fill="#203973" transform="scale(0.0625 0.0625)" d="M121.168 476.674C130.416 475.3 141.089 477.493 149.591 481.184C152.204 482.318 155.298 484.061 156.302 486.92C157.035 489.01 156.36 491.149 155.338 493C148.923 504.613 131.984 513.89 119.758 517.729C110.653 519.562 97.1126 519.134 89.0741 513.948C86.5796 512.339 84.8182 510.073 84.3264 507.099C83.524 502.248 86.1689 497.264 89.0038 493.51C97.0887 482.802 108.272 478.48 121.168 476.674Z"/>
	<path fill="#2F3352" transform="scale(0.0625 0.0625)" d="M111.364 490.54C108.592 486.699 105.965 490.974 102.766 490.361C102.651 489.517 102.514 489.728 103.019 489.078C106.665 484.381 117.233 483.027 122.824 482.87C125.441 482.796 127.981 483.279 130.587 482.942C130.755 482.921 130.923 482.895 131.09 482.872L131.653 483.632C130.899 485.323 128.84 486.276 127.528 487.572L126.826 488.274C124.516 486.733 122.298 485.547 119.425 486.008C116.357 486.5 113.613 488.521 111.364 490.54Z"/>
	<path fill="#FCBF5D" transform="scale(0.0625 0.0625)" d="M134.925 485.029C140.286 485.741 145.363 487.25 150.093 489.882C145.541 496.822 138.463 501.926 132.044 507.021C130.576 508.249 128.938 509.584 127.196 510.392C125.979 510.956 124.401 511.726 123.129 511.254C125.608 507.053 132.234 506.003 135.122 501.545C138.307 496.628 136.223 490.227 134.925 485.029Z"/>
	<path fill="#FCBF5D" transform="scale(0.0625 0.0625)" d="M100.451 491.317C102.202 492.246 102.456 500.826 103.372 503.024C105.818 508.89 110.661 510.727 116.164 512.841C113.238 513.15 110.421 513.412 107.474 513.323C103.048 512.728 96.6764 512.147 93.3996 508.784C92.2301 507.584 91.6564 505.978 91.7184 504.311C91.9038 499.324 96.9282 494.445 100.451 491.317Z"/>
	<path fill="#FCBF5D" transform="scale(0.0625 0.0625)" d="M111.364 490.54C113.613 488.521 116.357 486.5 119.425 486.008C122.298 485.547 124.516 486.733 126.826 488.274C128.631 490.986 130.094 493.545 129.476 496.918C128.977 499.642 127.174 501.852 124.893 503.337C122.031 505.199 118.228 506.075 114.884 505.201C113.002 504.709 111.341 503.607 110.417 501.864C108.646 498.527 109.924 494.331 111.159 491.029C111.221 490.864 111.296 490.703 111.364 490.54Z"/>
	<path fill="#203973" transform="scale(0.0625 0.0625)" d="M117.491 489.437C119.989 489.509 122.292 489.657 124.228 491.426C125.377 492.476 125.962 493.867 125.863 495.427C125.679 498.319 123.679 499.81 121.548 501.44L120.885 501.478C118.597 501.587 116.795 501.659 115.059 499.94C113.946 498.838 113.466 497.355 113.59 495.812C113.825 492.892 115.374 491.272 117.491 489.437Z"/>
	<path fill="#8EC9DF" transform="scale(0.0625 0.0625)" d="M919.79 538.349Q920.238 552.237 919.331 566.104Q918.423 579.97 916.168 593.681C915.674 598.367 915.172 603.533 913.209 607.876C909.712 631.969 902.842 655.093 894.527 677.923C892.35 683.897 890.39 690.414 887.454 696.036C886.116 700.178 884.893 704.777 882.596 708.496C877.749 718.086 872.988 727.763 867.57 737.046C863.993 743.176 859.919 748.994 856.195 755.031Q853.654 755.947 851.083 756.773Q848.511 757.599 845.913 758.334Q843.314 759.07 840.691 759.713Q838.068 760.357 835.424 760.908Q832.78 761.459 830.118 761.917Q827.457 762.375 824.781 762.739Q822.104 763.104 819.417 763.374Q816.73 763.644 814.035 763.819Q811.34 763.995 808.64 764.076Q805.941 764.156 803.24 764.142Q800.539 764.128 797.841 764.019Q795.142 763.911 792.449 763.707Q789.756 763.504 787.071 763.206Q784.387 762.908 781.715 762.516Q779.043 762.124 776.386 761.638Q773.729 761.153 771.091 760.574C769.272 760.16 760.108 757.532 759.028 758.943C759.198 764.848 765.619 773.478 769.069 778.103C767.19 779.588 765.465 780.622 765.038 783.145C764.823 784.416 764.955 785.88 764.979 787.169C746.672 785.276 729.265 782.762 712.324 775.022C706.318 766.066 699.898 757.367 694.168 748.231C672.653 713.93 656.066 675.951 650.151 635.719C653.952 629.84 657.655 623.899 660.484 617.475C662.871 612.054 664.6 606.328 667.466 601.129C677.803 602.194 687.796 606.108 697.928 608.325C715.172 612.1 734.368 612.971 751.998 612.156C816.856 609.159 875.544 586.943 919.79 538.349Z"/>
	<path fill="#203973" transform="scale(0.0625 0.0625)" d="M882.596 708.496C874.81 708.532 864.637 710.092 857.618 706.022L857.7 704.351L857.835 705.209L857.345 704.794C858.186 703.98 859.157 703.664 860.251 703.304C863.767 702.147 867.716 701.73 871.331 700.854C876.77 699.535 882.119 697.719 887.454 696.036C886.116 700.178 884.893 704.777 882.596 708.496Z"/>
	<path fill="#203973" transform="scale(0.0625 0.0625)" d="M916.168 593.681C915.674 598.367 915.172 603.533 913.209 607.876C895.903 621.914 874.251 631.179 851.693 629.588C858.568 625.46 866.899 623.622 874.286 620.538C889.876 614.03 903.186 604.307 916.168 593.681Z"/>
	<path fill="#FEFEFE" transform="scale(0.0625 0.0625)" d="M267.91 156.096C305.472 125.949 355.494 107.127 401.503 94.6586C409.328 92.5381 417.192 90.2311 425.135 88.6083C441.66 85.2321 458.493 83.6232 475.283 82.2455C497.955 80.3852 520.733 78.9151 543.422 81.4209C560.032 83.2555 576.923 85.0223 593.294 88.3941Q597.564 89.2306 601.815 90.1597Q606.065 91.0888 610.295 92.11Q614.524 93.1312 618.731 94.2441Q622.937 95.357 627.118 96.561Q631.299 97.765 635.453 99.0595Q639.607 100.354 643.732 101.739Q647.857 103.123 651.951 104.597Q656.045 106.071 660.106 107.633Q664.166 109.195 668.192 110.846Q672.218 112.496 676.207 114.233Q680.197 115.97 684.147 117.794Q688.098 119.618 692.008 121.527Q695.917 123.436 699.785 125.429Q703.652 127.422 707.476 129.499Q711.299 131.576 715.076 133.736Q718.854 135.896 722.583 138.137Q726.313 140.378 729.992 142.7Q733.672 145.021 737.301 147.422Q740.93 149.823 744.505 152.303Q748.081 154.782 751.602 157.338Q755.122 159.895 758.587 162.527Q762.051 165.159 765.458 167.866Q768.864 170.573 772.211 173.353Q775.558 176.134 778.844 178.986Q782.129 181.839 785.352 184.762Q788.575 187.685 791.734 190.677Q794.893 193.669 797.986 196.73Q801.078 199.79 804.104 202.917Q807.13 206.044 810.087 209.236Q813.044 212.427 815.931 215.683Q818.818 218.938 821.633 222.255Q824.449 225.572 827.192 228.95C841.869 247.284 855.677 265.968 866.252 286.987C860.681 286.868 854.509 286.235 849.005 287.103C846.084 287.564 843.52 289.15 840.668 289.853C833.175 291.701 816.558 292.926 809.379 290.176C800.233 286.674 792.037 280.518 783.341 276.032C774.102 284.673 769.539 295.351 762.574 305.527C754.288 301.019 746.112 296 736.783 294.016C729.478 302.902 724.107 313.302 716.155 321.654C705.102 266.98 691.466 227.437 653.375 185.738C641.337 172.56 628.204 160.38 613.31 150.472C557.593 113.408 500.912 99.974 435.05 113.204C417.923 116.644 401.497 123.312 385.72 130.665C333.838 154.844 296.211 187.126 259.763 230.728C248.431 244.286 237.534 257.977 227.756 272.717Q221.037 282.842 214.73 293.23Q208.424 303.617 202.54 314.25Q196.656 324.883 191.205 335.744Q185.754 346.605 180.745 357.676Q175.735 368.747 171.175 380.011Q166.614 391.275 162.511 402.713Q158.407 414.152 154.768 425.746Q151.128 437.34 147.957 449.071C123.608 451.957 97.7204 457.359 75.4939 467.967C78.3472 403.711 112.987 318.221 147.886 264.784C155.174 253.626 164.042 243.431 172.158 232.867C179.475 227.841 202.565 232.939 211.821 234.356L216.495 229.67Q235.382 214.168 252.128 196.375C253.943 194.77 255.767 193.161 257.408 191.376C265.796 182.255 268.41 168.086 267.91 156.096Z"/>
	<path fill="#FEFEFE" transform="scale(0.0625 0.0625)" d="M499.1 169.708C523.429 166.825 559.882 174.696 580.775 187.64C587.593 191.864 593.05 198.426 599.994 202.374L600.674 201.952C601.745 199.765 601.841 197.332 602.12 194.942C605.057 191.507 608.308 188.279 611.918 185.554C616.144 182.364 622.355 178.49 627.836 179.419C637.638 181.08 654.214 205.487 660.147 213.698C654.037 213.943 647.319 214.802 642.181 218.457C636.886 222.224 623.78 235.56 623.001 242.021C622.878 243.041 623.047 243.226 623.618 243.998C625.598 244.078 632.346 237.201 634.598 235.657C639.827 232.074 644.827 230.036 651.145 229.222C657.868 228.355 664.705 229.671 670.079 233.967C684.58 245.561 697.706 293.023 701.329 311.65C703.683 323.753 704.779 336.215 706.26 348.453L703.522 351.833C699.127 351.452 695.006 350.91 690.826 349.437C692.199 341.403 693.4 333.287 693.25 325.115C692.95 308.661 687.676 290.405 675.469 278.77C669.474 273.055 661.86 269.761 653.472 270.077C644.521 270.413 636.537 274.82 630.499 281.257C615.166 297.604 613.089 317.926 613.719 339.218L613.09 339.466C608.05 341.505 602.646 341.644 597.489 343.229C588.214 346.078 579.636 350.737 571.051 355.166C575.649 336.663 576.088 317.65 569.013 299.674C563.543 285.775 553.539 272.998 539.497 267.085C530.155 263.151 520.397 263.242 511.04 267.09C497.476 272.668 488.076 284.228 482.633 297.573C474.539 317.42 475.41 338.796 483.757 358.419C487.183 366.473 492.988 376.703 501.187 380.766C504.412 382.364 508.351 382.867 511.751 384.26L512.4 384.532C498.18 388.777 485.317 386.007 471.678 381.544C469.846 394.452 472.8 408.684 475.151 421.401C477.62 432.749 480.617 443.888 484.682 454.778C494.63 481.421 516.744 523.367 538.986 541.302C533.406 554.372 526.364 566.669 521.1 579.92C518.935 585.369 516.801 590.87 514.979 596.443C512.605 603.7 510.655 611.142 507.307 618.031Q489.83 602.069 471.461 587.14Q453.093 572.211 433.895 558.366C423.721 550.908 402.951 539.391 395.306 531.084C394.524 521.256 396.715 509.946 398.964 500.325C399.512 497.985 401.591 493.823 401.441 491.66C401.389 490.922 401.274 491.098 400.582 490.597C392.221 492.294 382.872 497.896 375.351 501.947C377.503 474.165 381.156 455.857 395.223 431.392C396.465 429.232 398.948 425.343 398.267 422.852C398.138 422.794 398.015 422.716 397.879 422.677C396.521 422.29 393.624 423.251 392.121 423.483C376.801 425.852 367.258 430.24 353.676 437.391C359.508 405.147 375.421 378.293 395.106 352.629C380.482 354.096 367.405 356.129 353.59 361.483Q355.601 356.121 357.793 350.831Q359.984 345.54 362.352 340.326Q364.721 335.112 367.264 329.981Q369.807 324.851 372.522 319.808Q375.237 314.766 378.121 309.819Q381.004 304.871 384.053 300.024Q387.102 295.176 390.312 290.434Q393.523 285.693 396.892 281.062Q400.261 276.431 403.784 271.917Q407.307 267.402 410.981 263.009Q414.655 258.616 418.474 254.35Q422.294 250.083 426.256 245.948Q430.217 241.813 434.316 237.814Q438.415 233.815 442.647 229.957Q446.878 226.098 451.238 222.385Q455.597 218.671 460.079 215.107C466.786 209.725 473.664 204.359 480.949 199.775C486.594 196.222 493.834 193.536 498.698 189.018C498.831 188.894 498.96 188.767 499.091 188.642C493.191 181.498 485.63 176.721 477.913 171.778C484.981 171.243 492.046 170.416 499.1 169.708Z"/>
	<path fill="#203973" transform="scale(0.0625 0.0625)" d="M511.969 204.654C518.241 203.846 524.684 205.608 530.092 208.761C540.814 215.012 548.189 226.561 551.274 238.365C546.089 234.367 540.94 230.157 535.382 226.685C525.622 220.588 515.651 218.433 504.382 221.063C495.666 223.359 487.433 226.831 480.791 233.06C477.358 236.28 473.629 241.295 469.22 243.041L468.741 242.407C468.56 238.569 471.313 234.333 473.508 231.282C483.496 217.398 494.678 207.425 511.969 204.654Z"/>
	<path fill="#8EC9DF" transform="scale(0.0625 0.0625)" d="M469.68 119.644C489.738 119.195 510.533 120.731 530.126 125.194C563.186 132.723 597.398 150.058 622.377 173.005C609.647 176.868 604.998 180.665 596.961 191.122C589.53 183.281 580.895 177.851 571.01 173.569C540.091 160.176 511.873 158.434 478.975 163.691C473.023 164.642 465.831 165.085 460.35 167.55C459.132 168.097 458.542 168.478 458.059 169.717C458.918 171.277 461.593 172.124 463.147 172.902C471.189 176.923 478.451 181.425 484.989 187.627C473.198 196.729 460.017 203.866 448.441 213.386C395.429 256.985 358.489 314.852 337.784 379.969C350.468 372.316 361.137 367.033 375.493 363.205C363.096 383.87 352.127 403.983 346.25 427.556C343.924 436.884 342.458 446.454 340.431 455.86C348.754 450.901 355.567 444.268 364.408 440.026C370.96 437.029 377.302 433.874 384.414 432.474C382.177 437.311 379.407 441.817 377.411 446.799C369.02 467.742 366.262 491.486 368.227 513.808C360.714 510.547 353.749 505.921 346.749 501.701C339.31 497.218 331.825 493.027 324.052 489.148C308.934 481.603 293.495 474.308 277.641 468.434C253.767 459.589 220.892 451.958 195.569 449.46C183.883 448.306 172.151 448.643 160.437 447.941C164.515 431.421 170.781 415.652 176.935 399.825C193.097 358.257 210.163 321.785 234.615 284.243C270.734 228.79 316.952 181.509 375.264 149.515C390.444 141.185 406.064 133.687 422.613 128.476C430.939 125.854 439.64 123.61 448.296 122.427C455.115 121.495 462.025 121.326 468.764 119.85L469.68 119.644Z"/>
	<path fill="#203973" transform="scale(0.0625 0.0625)" d="M317.238 236.432C318.449 236.535 317.965 236.291 318.745 237.042C317.513 241.944 298.243 259.775 293.847 263.998L293.397 264.262L292.919 263.761C292.929 263.171 292.939 262.63 293.067 262.05C295.686 250.156 307.755 242.615 317.238 236.432Z"/>
	<path fill="#203973" transform="scale(0.0625 0.0625)" d="M300.746 317.912L301.189 318.668C298.931 326.731 283.089 343.322 276.831 349.514C276.453 348.491 276.16 347.429 276.331 346.33C277.672 337.683 293.807 322.893 300.746 317.912Z"/>
	<path fill="#203973" transform="scale(0.0625 0.0625)" d="M248.516 392.859L249.148 393.059C249.626 393.631 249.985 393.723 249.844 394.527C248.691 401.122 225.048 418.178 218.816 422.613C218.623 422.533 218.413 422.488 218.238 422.374C217.375 421.813 216.992 421.123 217.108 420.083C217.908 412.922 241.581 397.268 248.516 392.859Z"/>
	<path fill="#203973" transform="scale(0.0625 0.0625)" d="M248.751 362.914C249.867 363.36 249.964 363.339 250.574 364.358C248.966 368.841 223.534 394.631 218.252 397.847C217.903 397.659 217.228 397.322 216.952 397.056C216.128 396.261 216.264 395.404 216.498 394.388C218.176 387.098 242.677 366.97 248.751 362.914Z"/>
	<path fill="#203973" transform="scale(0.0625 0.0625)" d="M273.719 300.421L274.309 301.097C274.047 305.298 244.391 335.895 239.624 340.619L239.117 340.069C238.921 339.017 238.834 338.344 239.063 337.267C239.582 334.831 241.691 332.09 243.074 330.029C251.151 317.996 261.286 307.931 273.719 300.421Z"/>
	<path fill="#FEFEFE" transform="scale(0.0625 0.0625)" d="M614.382 411.692C614.537 421.625 614.972 432.038 617.1 441.755C621.744 462.97 637.34 478.879 656.407 488.295C664.906 492.491 673.586 495.293 681.63 500.47C679.043 510.69 677.414 521.135 674.942 531.382C673.438 537.614 671.491 543.737 669.84 549.931C663.095 575.232 656.634 597.855 644.922 621.581C639.755 632.047 633.437 642.201 627.283 652.117C621.439 661.535 613.822 669.913 607.668 679.17C624.234 672.978 632.896 660.795 643.275 647.281C644.304 653.716 644.547 660.311 645.236 666.794Q646.727 680.088 649.65 693.142C652.108 703.837 655.664 714.189 659.23 724.553C673.916 767.237 693.979 806.297 721.313 842.305C729.463 853.041 737.772 863.458 747.338 872.971C696.731 904.605 647 925.877 587.822 935.531C580 936.807 570.481 940.084 562.573 938.884L559.043 932.923C548.088 914.276 537.441 895.151 529.475 874.999C526.828 868.302 524.765 861.325 522.518 854.483C500.206 786.533 493.639 708.296 511.772 638.557C523.854 646.043 534.848 654.857 547.877 660.754C536.002 649.157 525.86 635.916 514.229 624.058C517.314 616.094 519.45 607.701 522.216 599.611C526.15 588.104 530.855 576.963 535.669 565.805C538.443 559.375 541 552.799 544.251 546.595C553.063 554.108 562.007 561.29 571.716 567.619C588.415 578.505 607.51 586.914 627.199 590.555C629.992 591.072 633.849 592.034 636.632 591.341C637.782 591.054 638.173 590.714 638.749 589.658C639.725 587.872 639.063 584.726 638.705 582.815C637.792 577.932 636.056 573.031 634.65 568.261C631.657 558.106 628.499 547.967 625.997 537.678C623.177 526.084 620.315 514.29 618.348 502.522C615.463 485.257 609.493 432.085 611.818 417.204C612.133 415.188 613.337 413.406 614.382 411.692Z"/>
	<path fill="#8EC9DF" transform="scale(0.0625 0.0625)" d="M100.727 815.126C76.8619 744.37 97.6678 668.611 129.607 603.927C136.533 589.901 156.33 555.789 167.264 545.706C169.591 543.561 172.27 542.116 175.259 541.102C183.96 538.153 194.181 537.404 203.286 536.373C282.283 527.427 371.98 563.274 441.45 598.463C462.979 609.369 483.229 623.003 504.158 635.027C498.544 659.016 494.274 682.81 492.689 707.446C487.907 781.753 505.925 865.127 545.319 928.771Q548.772 934.292 552.628 939.539C537.988 940.932 503.18 941.618 489.183 938.862C477.06 927.372 467.26 913.32 456.494 900.566Q451.656 894.927 446.953 889.176Q442.25 883.424 437.685 877.563Q433.12 871.701 428.695 865.733Q424.269 859.765 419.987 853.694Q415.705 847.623 411.567 841.452Q407.43 835.281 403.44 829.014Q399.45 822.747 395.609 816.386Q391.769 810.026 388.08 803.577Q384.392 797.128 380.857 790.593Q377.322 784.058 373.943 777.442Q370.564 770.825 367.343 764.13Q364.122 757.435 361.06 750.666Q357.998 743.896 355.098 737.056Q352.198 730.216 349.46 723.309Q346.722 716.402 344.149 709.433Q341.576 702.463 339.169 695.434C329.74 667.376 322.413 638.12 316.187 609.175C314.403 613.743 313.061 617.961 312.636 622.865C312.122 628.797 312.787 634.909 313.425 640.816C317.481 678.366 331.492 715.733 346.535 750.105C352.554 763.857 361.117 781.457 368.501 794.469C372.306 801.174 376.595 807.632 380.592 814.227C385.313 822.018 389.641 830.037 394.632 837.665C409.433 860.283 426.071 881.656 442.905 902.784C454.763 917.666 468.66 931.182 479.745 946.613C457.653 940.125 437.227 932.042 417.339 920.344C412.391 917.434 407.296 914.504 402.787 910.938C407.798 924.365 415.855 936.909 420.416 949.609C396.638 941.107 375.012 930.618 354.754 915.381C346.517 909.186 339.032 902.031 330.561 896.136C333.035 911.399 335.748 926.472 340.764 941.14C310.401 925.851 280.581 896.78 261.801 868.598C259.184 888.323 262.835 903.723 266.475 922.843C248.848 909.321 234.126 894.805 221.436 876.516C216.105 868.832 211.451 860.666 205.852 853.176C200.174 867.773 201.842 881.431 202.132 896.618C179.181 876.891 166.26 848.388 153.413 821.703C146.509 835.249 143.223 848.127 141.824 863.235C127.748 839.08 120.027 816.771 115.843 789.15C109.293 797.023 104.556 805.638 100.727 815.126Z"/>
	<path fill="#203973" transform="scale(0.0625 0.0625)" d="M134.544 777.078L136.265 777.733C139.696 781.728 145.906 803.97 145.625 809.417C144.466 808.7 143.358 808.026 142.528 806.915C137.746 800.519 133.17 784.937 134.544 777.078Z"/>
	<path fill="#203973" transform="scale(0.0625 0.0625)" d="M177.85 799.426C178.654 799.714 179.495 799.976 180.115 800.598C184.111 804.61 192.401 825.262 192.641 830.825C190.307 830.073 189.269 829.291 187.877 827.301C184.06 821.844 176.572 806.053 177.85 799.426Z"/>
	<path fill="#203973" transform="scale(0.0625 0.0625)" d="M295.824 851.848C296.376 852.042 296.948 852.263 297.41 852.635C299.32 854.179 311.961 873.287 313.573 876.291C314.27 877.592 314.592 878.587 314.741 880.05C314.431 880.007 314.117 879.984 313.81 879.922C309.506 879.058 305.17 873.388 302.726 869.967C299.25 865.102 294.791 858.03 295.824 851.848Z"/>
	<path fill="#203973" transform="scale(0.0625 0.0625)" d="M365.33 881.784C370.668 883.439 380.153 892.621 384.303 896.679C386.988 899.305 389.672 901.535 389.7 905.513C387.031 905.364 385.273 904.468 383.092 902.966C376.856 898.669 366.73 889.444 365.33 881.784Z"/>
	<path fill="#203973" transform="scale(0.0625 0.0625)" d="M222.723 820.3C224.896 822.346 237.923 846.93 240.533 851.657C240.408 853.267 240.051 853.413 239.012 854.588C232.671 848.948 221.537 832.573 220.934 824.125C220.808 822.357 221.71 821.599 222.723 820.3Z"/>
</svg>
