<?xml version="1.0" encoding="utf-8" ?>
<svg xmlns="http://www.w3.org/2000/svg" xmlns:xlink="http://www.w3.org/1999/xlink" width="1024" height="1024">
	<path fill="#FEFEFB" d="M0 0L1024 0L1024 1024L0 1024L0 0Z"/>
	<path fill="#C23344" d="M159.893 230.859C164.147 230.929 168.424 230.546 172.111 233.016C163.643 244.307 154.362 254.801 146.675 266.727C114.62 316.454 86.2189 388.255 77.5994 446.798C76.567 453.811 76.1166 460.951 75.5526 468.014C71.6049 469.546 68.0349 471.858 64.0652 473.336C64.3283 461.933 66.2812 450.715 68.1916 439.502Q69.1597 434.039 70.251 428.599Q71.3424 423.16 72.5565 417.746Q73.7706 412.332 75.1068 406.948Q76.443 401.563 77.9006 396.21Q79.3582 390.856 80.9365 385.538Q82.5148 380.219 84.2129 374.937Q85.9111 369.655 87.7283 364.413Q89.5454 359.171 91.4806 353.971Q93.4159 348.772 95.4682 343.617Q97.5205 338.463 99.6888 333.356Q101.857 328.249 104.14 323.193Q106.424 318.136 108.821 313.133Q111.218 308.129 113.727 303.181Q116.237 298.233 118.858 293.343Q121.478 288.453 124.209 283.623Q126.94 278.794 129.779 274.027C135.909 263.806 142.641 254.112 149.698 244.515C153.068 239.931 156.758 235.613 159.893 230.859Z"/>
	<path fill="#C23344" d="M266.255 143.354C310.031 112.769 366.415 90.0265 418.779 79.3632C434.615 76.1384 450.524 74.1755 466.58 72.5424C474.949 71.6912 483.356 70.354 491.76 70.0418C507.74 69.4481 523.092 70.2957 538.999 71.5344C549.434 72.3471 560.078 72.7026 570.398 74.5588C579.25 76.1513 588.012 78.262 596.847 79.8935C602.172 80.8769 607.527 81.1516 612.803 82.4963Q617.82 83.7438 622.806 85.1107Q627.792 86.4777 632.744 87.9634Q637.696 89.4492 642.611 91.0528Q647.526 92.6565 652.402 94.3771Q657.277 96.0977 662.11 97.9343Q666.943 99.771 671.73 101.723Q676.518 103.674 681.257 105.74Q685.997 107.805 690.686 109.983Q695.375 112.161 700.01 114.451Q704.646 116.74 709.225 119.14Q713.805 121.539 718.325 124.048Q722.846 126.556 727.306 129.172Q731.765 131.787 736.161 134.509Q740.557 137.23 744.886 140.056Q749.216 142.882 753.477 145.81Q757.737 148.739 761.927 151.768C765.81 154.609 769.867 157.142 773.626 160.163C778.686 164.229 783.15 168.822 787.943 173.165C798.099 182.368 807.57 191.412 816.879 201.483C828.438 213.987 840.03 226.803 849.714 240.854C860.212 256.086 871.871 271.785 879.553 288.644C875.127 287.978 870.711 287.245 866.238 286.988C857.149 267.511 842.219 248.329 829 231.292C818.263 217.454 809.329 208.11 796.99 195.851C793.034 191.921 789.224 187.791 785.127 184.01C777.163 176.659 768.369 169.919 759.759 163.341C716.067 129.962 673.289 109.822 620.424 95.3788C611.984 93.0727 603.449 90.5316 594.888 88.7566C578.357 85.3291 561.41 83.7094 544.673 81.624C527.069 79.4306 504.679 79.9292 486.983 81.3249C466.703 82.9243 446.4 84.4531 426.384 88.3668C420.178 89.5803 414.134 91.4135 408.008 92.9574C360.697 104.881 306.652 125.816 267.915 155.972C267.678 151.738 266.389 147.651 266.255 143.354Z"/>
	<path fill="#C23344" d="M925.096 471.604C927.088 487.841 930.161 503.724 930.94 520.108Q931.234 525.929 931.361 531.757Q931.487 537.584 931.446 543.413Q931.406 549.242 931.198 555.067Q930.99 560.892 930.615 566.709Q930.24 572.526 929.698 578.329Q929.156 584.133 928.448 589.918Q927.74 595.704 926.866 601.467Q925.992 607.23 924.953 612.965Q923.915 618.701 922.712 624.404Q921.508 630.108 920.142 635.774Q918.776 641.44 917.248 647.065Q915.719 652.69 914.03 658.269Q912.341 663.848 910.493 669.376Q908.644 674.904 906.638 680.376Q904.631 685.849 902.469 691.262Q900.306 696.674 897.989 702.023C893.38 712.763 888.532 723.714 882.89 733.953C870.03 757.292 854.727 778.911 838.353 799.876C820.277 823.02 799.613 845.16 777.002 863.946C743.312 891.937 693.076 918.936 651.607 932.81C624.135 942.001 595.958 947.742 567.251 951.252C545.505 953.911 523.585 952.845 501.756 953.658C498.616 948.116 493.157 943.965 489.247 938.952C510.424 940.568 531.457 941.292 552.67 939.464C555.786 939.819 559.472 939.153 562.613 938.86C568.913 939.822 579.753 936.744 586.258 935.776C644.085 927.173 698.422 904.706 747.276 872.906C750.245 871.539 753.076 868.961 755.553 866.832C759.785 863.273 764.177 859.913 768.544 856.524C772.18 854.611 775.614 851.081 778.373 848.076C781.437 844.807 785.292 841.923 788.611 838.87C794.344 833.598 799.857 828.032 805.33 822.491C814.462 813.245 826.351 799.287 833.915 788.711C838.652 782.088 842.919 775.038 847.322 768.185C847.5 768.126 847.689 768.095 847.856 768.009C850.807 766.485 855.022 758.201 856.139 755.093C859.135 749.575 863.204 744.47 866.41 739.021C872.227 729.135 877.274 718.662 882.583 708.491C884.8 704.839 886.05 700.107 887.369 696.065C889.646 691.734 891.187 686.497 892.948 681.906C902.115 658.009 909.579 633.132 913.228 607.778C915.186 603.546 915.558 598.122 916.164 593.541C916.914 585.826 918.308 578.181 919.011 570.441C919.967 559.907 920.004 548.892 919.664 538.328C919.78 538.058 919.923 537.799 920.01 537.519C920.812 534.954 920.542 526.272 919.366 523.972L919.837 523.676C920.557 519.953 919.713 515.35 919.393 511.554C918.359 499.309 915.976 486.215 915.896 474.047C918.69 472.884 922.078 471.837 925.096 471.604Z"/>
	<path fill="#203872" d="M174.749 61.463C188.497 64.9104 201.854 69.2721 214.043 76.6671C237.877 91.1283 259.439 115.797 266.255 143.354C266.389 147.651 267.678 151.738 267.915 155.972C269.276 164.411 265.295 181.259 260.195 188.265C257.805 191.55 254.782 194.171 251.68 196.759C240.823 207.6 228.444 220.233 216.463 229.598C214.951 231.204 213.478 232.912 211.848 234.395C205.102 233.489 178.118 228.399 172.916 232.351C172.639 232.562 172.375 232.789 172.111 233.016C168.424 230.546 164.147 230.929 159.893 230.859C145.626 229.376 112.81 235.507 99.1902 239.787C89.8584 242.72 80.7348 246.892 71.8109 250.884C79.2695 235.484 94.2923 218.144 107.826 207.891C132.078 189.52 158.434 179.827 189.233 184.012Q187.091 181.89 184.884 179.835Q182.677 177.78 180.407 175.794Q178.138 173.808 175.808 171.894Q173.479 169.979 171.091 168.137Q168.704 166.295 166.26 164.527Q163.817 162.76 161.32 161.069Q158.824 159.377 156.276 157.764Q153.728 156.151 151.132 154.617Q148.536 153.083 145.894 151.63Q143.251 150.177 140.565 148.806Q137.879 147.436 135.152 146.148Q132.425 144.861 129.66 143.659Q126.894 142.456 124.093 141.34Q121.292 140.223 118.457 139.194Q115.623 138.165 112.758 137.223Q109.893 136.282 107.001 135.429C95.1016 131.974 82.9618 129.718 70.7943 127.477C90.7659 117.877 114.806 112.905 136.862 114.912C167.455 117.696 199.618 130.914 219.66 155.011C219.265 130.354 204.147 102.357 190.307 82.4835C185.323 75.3262 179.617 68.6985 174.749 61.463Z"/>
	<path fill="#8FC9E1" d="M195.374 77.4679C214.829 86.8296 233.348 102.619 244.739 121.063C254.922 137.552 262.109 158.847 257.604 178.293C256.186 184.411 253.028 190.246 251.766 196.251C251.731 196.419 251.709 196.589 251.68 196.759C240.823 207.6 228.444 220.233 216.463 229.598C188.283 216.864 152.321 218.874 122.466 224.016C114.878 225.323 107.551 226.616 100.234 229.084C107.845 221.423 116.239 214.086 125.579 208.578Q126.552 207.993 127.539 207.432Q128.525 206.871 129.525 206.333Q130.524 205.795 131.536 205.28Q132.548 204.766 133.571 204.275Q134.595 203.785 135.63 203.319Q136.665 202.853 137.711 202.411Q138.756 201.969 139.812 201.552Q140.868 201.135 141.933 200.743Q142.998 200.351 144.072 199.984Q145.147 199.617 146.229 199.276Q147.312 198.935 148.402 198.619Q149.492 198.303 150.589 198.013Q151.687 197.723 152.791 197.458Q153.895 197.194 155.005 196.956Q156.114 196.718 157.229 196.506Q158.345 196.294 159.464 196.108Q160.584 195.923 161.708 195.763Q162.832 195.604 163.959 195.471Q165.087 195.339 166.217 195.232Q167.347 195.126 168.479 195.047Q169.611 194.967 170.745 194.914Q171.879 194.861 173.014 194.835Q174.149 194.809 175.284 194.809Q176.419 194.81 177.554 194.837Q178.688 194.865 179.822 194.918Q180.956 194.972 182.088 195.053Q183.22 195.134 184.35 195.241Q185.48 195.348 186.608 195.482Q187.735 195.616 188.859 195.776Q189.982 195.936 191.102 196.123Q192.222 196.31 193.336 196.523Q194.451 196.736 195.561 196.975C203.566 198.757 210.926 201.916 218.788 203.914L219.409 204.066C216.531 199.086 212.788 194.685 209.147 190.257Q207.291 188.038 205.373 185.874Q203.454 183.709 201.475 181.6Q199.495 179.491 197.456 177.44Q195.417 175.389 193.32 173.396Q191.223 171.404 189.07 169.472Q186.917 167.541 184.71 165.672Q182.502 163.803 180.242 161.997Q177.982 160.192 175.672 158.452Q173.361 156.712 171.002 155.039Q168.642 153.366 166.236 151.761Q163.83 150.156 161.379 148.62Q158.927 147.085 156.433 145.62Q153.939 144.155 151.404 142.762Q148.869 141.369 146.296 140.049Q143.722 138.729 141.111 137.483Q138.501 136.238 135.856 135.067C130.95 132.931 125.904 130.784 120.763 129.297C118.522 128.649 116.037 128.514 113.87 127.726C112.795 127.336 112.771 127.377 112.27 126.296C126.598 122.833 151.234 127.321 164.835 132.014C196.988 143.107 218.234 166.041 232.752 196.066C233.702 190.503 234.69 184.914 234.888 179.263C235.908 150.144 223.343 112.801 206.14 89.5513C202.966 85.2608 199.006 81.3787 195.374 77.4679Z"/>
	<path fill="#203872" d="M267.915 155.972C306.652 125.816 360.697 104.881 408.008 92.9574C414.134 91.4135 420.178 89.5803 426.384 88.3668C446.4 84.4531 466.703 82.9243 486.983 81.3249C504.679 79.9292 527.069 79.4306 544.673 81.624C561.41 83.7094 578.357 85.3291 594.888 88.7566C603.449 90.5316 611.984 93.0727 620.424 95.3788C673.289 109.822 716.067 129.962 759.759 163.341C768.369 169.919 777.163 176.659 785.127 184.01C789.224 187.791 793.034 191.921 796.99 195.851C809.329 208.11 818.263 217.454 829 231.292C842.219 248.329 857.149 267.511 866.238 286.988C870.711 287.245 875.127 287.978 879.553 288.644C879.714 288.727 879.872 288.812 880.034 288.893C885.772 291.744 893.662 292.226 899.931 293.387C908.185 294.915 916.362 296.868 924.538 298.767C930.564 300.167 937.063 301.2 942.812 303.469C956.643 308.928 966.623 322.488 971.328 336.134C981.677 366.143 978.667 401.556 964.548 430.022C954.366 450.549 944.519 460.424 925.096 471.604C922.078 471.837 918.69 472.884 915.896 474.047C915.976 486.215 918.359 499.309 919.393 511.554C919.713 515.35 920.557 519.953 919.837 523.676L919.366 523.972C920.542 526.272 920.812 534.954 920.01 537.519C919.923 537.799 919.78 538.058 919.664 538.328C920.004 548.892 919.967 559.907 919.011 570.441C918.308 578.181 916.914 585.826 916.164 593.541C915.558 598.122 915.186 603.546 913.228 607.778C909.579 633.132 902.115 658.009 892.948 681.906C891.187 686.497 889.646 691.734 887.369 696.065C886.05 700.107 884.8 704.839 882.583 708.491C877.274 718.662 872.227 729.135 866.41 739.021C863.204 744.47 859.135 749.575 856.139 755.093C855.022 758.201 850.807 766.485 847.856 768.009C847.689 768.095 847.5 768.126 847.322 768.185C842.919 775.038 838.652 782.088 833.915 788.711C826.351 799.287 814.462 813.245 805.33 822.491C799.857 828.032 794.344 833.598 788.611 838.87C785.292 841.923 781.437 844.807 778.373 848.076C775.614 851.081 772.18 854.611 768.544 856.524C764.177 859.913 759.785 863.273 755.553 866.832C753.076 868.961 750.245 871.539 747.276 872.906C698.422 904.706 644.085 927.173 586.258 935.776C579.753 936.744 568.913 939.822 562.613 938.86C559.472 939.153 555.786 939.819 552.67 939.464C531.457 941.292 510.424 940.568 489.247 938.952C493.157 943.965 498.616 948.116 501.756 953.658C503.407 956.24 505.176 958.446 507.246 960.704C501.723 961.248 496.292 961.671 490.732 961.493C471.059 961.069 451.93 955.693 433.789 948.431C435.591 953.57 437.715 958.368 440.451 963.078C428.544 962.036 417.519 959.548 405.968 956.61C393.623 954.317 374.878 946.434 363.523 940.573C358.829 938.15 354.224 933.77 349.095 932.466C351.108 940.812 354.166 949.082 356.449 957.398C322 949.903 297.017 926.518 273.574 901.754C275.559 915.86 280.602 931.583 285.974 944.718C254.889 934.24 231.346 910.184 212.77 884.133C214.992 896.872 216.866 909.288 220.563 921.726C188.809 907.086 169.753 880.719 154.691 850.337C151.147 862.711 152.558 872.714 152.428 885.213L152.058 884.999C147.601 882.361 143.746 878.87 140.053 875.267C124.129 859.728 115.55 840.261 110.172 819.015L109.881 819.478C109.721 819.736 109.567 819.998 109.405 820.255C105.911 825.791 103.471 831.79 100.849 837.771C99.5535 837.147 98.9118 835.609 98.2429 834.355C71.5131 784.229 74.6269 722.996 90.4251 669.945C86.6256 663.528 84.6104 655.142 82.3294 648.07Q79.1914 638.498 76.4999 628.791Q73.8083 619.083 71.5691 609.262Q69.3298 599.441 67.5476 589.526Q65.7654 579.611 64.4441 569.625C63.1053 559.646 62.4596 549.515 61.3307 539.497C51.2319 523.611 44.0128 508.694 39.3405 490.356C45.7189 483.132 55.3034 477.236 64.0652 473.336C68.0349 471.858 71.6049 469.546 75.5526 468.014C76.1166 460.951 76.567 453.811 77.5994 446.798C86.2189 388.255 114.62 316.454 146.675 266.727C154.362 254.801 163.643 244.307 172.111 233.016C172.375 232.789 172.639 232.562 172.916 232.351C178.118 228.399 205.102 233.489 211.848 234.395C213.478 232.912 214.951 231.204 216.463 229.598C228.444 220.233 240.823 207.6 251.68 196.759C254.782 194.171 257.805 191.55 260.195 188.265C265.295 181.259 269.276 164.411 267.915 155.972Z"/>
	<defs>
		<linearGradient id="gradient_0" gradientUnits="userSpaceOnUse" x1="765.15973" y1="782.95135" x2="773.96521" y2="785.01575">
			<stop offset="0" stop-color="#AFD7E7"/>
			<stop offset="1" stop-color="#D4E9EA"/>
		</linearGradient>
	</defs>
	<path fill="url(#gradient_0)" d="M768.878 777.801C771.376 781.288 773.585 784.882 775.766 788.574Q770.152 787.878 764.546 787.124C764.363 785.402 764.289 783.804 764.373 782.073C764.953 781.002 765.127 780.616 766.214 779.978C767.155 779.425 767.785 778.902 768.56 778.125L768.878 777.801Z"/>
	<path fill="#FEFEFB" d="M514.571 338.37C514.776 338.375 514.982 338.371 515.187 338.384C516.796 338.484 518.391 338.971 519.403 340.311C520.424 341.664 520.738 343.156 520.464 344.807C520.024 347.448 518.609 348.746 516.48 350.191C514.772 350.044 512.951 349.487 511.807 348.126C510.76 346.882 510.383 345.534 510.593 343.942C510.947 341.253 512.525 339.944 514.571 338.37Z"/>
	<path fill="#E35B59" d="M785.457 286.352Q792.292 291.411 798.887 296.778Q791.415 299.378 783.835 301.642C779.391 302.525 775.059 303.922 770.721 305.212C776.26 299.397 780.871 292.928 785.457 286.352Z"/>
	<path fill="#E35B59" d="M859.012 423.833C862.505 427.041 863.831 440.906 867.096 446.208C868.608 448.664 876.295 459.025 876.505 460.484C870.205 457.946 864.275 454.784 857.792 452.664C859.152 442.956 859.018 433.588 859.012 423.833Z"/>
	<path fill="#8FC9E1" d="M389.195 503.876L389.965 504.21C390.723 509.128 388.367 521.767 387.895 527.302C385.177 525.1 382.095 523.237 379.185 521.29C376.225 519.225 373.579 516.918 370.897 514.507C377.105 511.13 382.839 506.995 389.195 503.876Z"/>
	<path fill="#C23344" d="M346.288 922.191C354.586 925.65 362.029 931.479 369.677 936.155C378.846 941.759 388.336 946.809 397.806 951.879C400.352 953.242 403.858 954.633 405.968 956.61C393.623 954.317 374.878 946.434 363.523 940.573C358.829 938.15 354.224 933.77 349.095 932.466C348.715 929.016 347.274 925.52 346.288 922.191Z"/>
	<path fill="#E35B59" d="M776.335 309.996L777.439 309.979C777.243 312.35 771.249 317.645 769.633 319.953C764.317 327.543 760.365 335.518 756.969 344.131C754.181 342.788 751.65 341.806 748.558 341.404C746.442 340.591 744.357 340.175 742.143 339.74C743.268 336.938 744.373 334.088 745.688 331.368Q748.314 325.938 752.046 321.2C759.411 311.743 765.98 313.54 776.335 309.996Z"/>
	<path fill="#FBBF5C" d="M870.181 360.463Q875.775 362.794 881.478 364.842C879.479 371.689 877.165 378.712 876.418 385.829C875.883 390.927 876.811 396.609 875.446 401.527C872.915 401.363 865.278 401.699 863.649 400.157C861.587 392.501 866.275 367.833 870.181 360.463Z"/>
	<path fill="#C23344" d="M426.048 935.66C433.622 938.679 441.187 941.904 448.87 944.628C455.298 946.907 488.378 955.285 490.277 959.622C490.518 960.173 490.619 960.917 490.732 961.493C471.059 961.069 451.93 955.693 433.789 948.431C431.044 944.25 428.517 940.006 426.048 935.66Z"/>
	<path fill="#FBBF5C" d="M739.477 303.006C744.374 305.397 748.765 307.685 754.211 308.404C749.812 314.509 744.992 320.291 740.823 326.571C738.686 329.79 737.417 337.489 734.077 338.949C732.73 338.664 731.594 338.436 730.225 338.754C729.899 338.83 729.575 338.918 729.25 339C725.378 339.371 721.836 340.702 718.018 341.12C717.428 340.807 716.936 340.744 716.693 340.066C715.977 338.066 717.286 335.199 718.249 333.473C724.121 322.952 734.332 314.647 739.287 303.452C739.352 303.304 739.413 303.155 739.477 303.006Z"/>
	<path fill="#FBBF5C" d="M679.328 404.693C685.449 406.755 691.853 409.524 698.183 410.723C694.167 422.913 693.402 435.249 691.877 447.847C685.725 444.579 678.827 442.176 672.384 439.496C672.594 427.284 674.869 416.048 679.328 404.693Z"/>
	<path fill="#FBBF5C" d="M672.036 445.59L673.506 446.257C675.825 447.32 691.167 452.697 691.467 453.325C692.547 455.591 691.853 460.09 692.038 462.722C692.294 466.359 693.069 470.139 693.855 473.695C695.876 482.828 700.268 491.168 704.478 499.435L703.731 499.809C698.142 499.187 690.001 496.179 685.886 492.233C676.304 483.046 671.858 458.176 672.036 445.59Z"/>
	<path fill="#E35B59" d="M97.2308 650.674C92.8145 645.809 89.7221 631.012 87.95 624.411C85.6606 615.884 72.894 561.671 76.0795 556.141C79.6343 558.88 83.1812 560.902 83.9019 565.657C84.6312 570.469 83.3781 575.483 83.7642 580.336C85.0512 596.511 96.9769 611.092 107.434 622.567C103.583 631.84 100.121 641.055 97.2308 650.674Z"/>
	<path fill="#FBBF5C" d="M856.403 294.679C860.413 295.855 865.072 295.863 869.246 296.195C866.15 298.034 863.001 299.602 859.814 301.262C843.05 309.995 825.558 341.964 820.03 359.771C815.209 357.087 812.526 355.694 806.938 355.321C809.867 340.584 819.247 326.109 828.315 314.311C835.149 305.42 844.858 296.251 856.403 294.679Z"/>
	<path fill="#E35B59" d="M568.482 489.985C576.381 491.056 582.428 495.048 587.867 500.639C588.808 511.857 590.899 522.505 593.841 533.364C594.818 536.97 600.17 551.058 599.79 553.713L598.997 553.809C596.731 552.358 595.077 550.011 593.352 547.97C584.258 537.908 561.801 512.798 556.882 501.524C556.312 500.217 555.887 498.993 556.524 497.619C558.423 493.52 564.608 491.565 568.482 489.985Z"/>
	<path fill="#FBBF5C" d="M733.874 345.761L734.731 345.467C736.677 345.843 748.122 346.804 748.198 346.843C748.627 347.067 748.929 347.479 749.295 347.797L749.099 348.714C746.758 350.624 743.224 351.565 740.433 352.746C736.138 354.562 732.287 357.665 728.799 360.72C714.599 373.158 706.542 388.866 699.564 406.135C693.481 403.382 687.415 401.258 681.002 399.413C686.235 386.133 693.478 374.045 703.338 363.69C710.931 355.715 722.379 346.079 733.874 345.761Z"/>
	<path fill="#C23344" d="M61.3307 539.497L61.6052 539.808C63.4909 541.984 64.871 544.473 66.8131 546.616C69.7753 549.885 73.3278 552.725 76.0795 556.141C72.894 561.671 85.6606 615.884 87.95 624.411C89.7221 631.012 92.8145 645.809 97.2308 650.674C94.6883 656.747 92.1273 663.586 90.4251 669.945C86.6256 663.528 84.6104 655.142 82.3294 648.07Q79.1914 638.498 76.4999 628.791Q73.8083 619.083 71.5691 609.262Q69.3298 599.441 67.5476 589.526Q65.7654 579.611 64.4441 569.625C63.1053 559.646 62.4596 549.515 61.3307 539.497Z"/>
	<path fill="#E35B59" d="M698.732 455.605C704.175 457.459 709.79 458.854 715.269 460.614C721.169 462.509 727.022 464.886 733.047 466.307C734.353 470.859 734.643 475.651 735.39 480.317C737.591 494.064 741.915 504.82 750.206 516.072C748.889 516.076 747.631 516.001 746.358 515.629C741.441 514.195 736.97 511.433 732.205 509.594C727.918 507.94 723.392 506.902 719.214 504.957C717.428 504.125 715.721 503.083 714.295 501.713C704.555 492.355 699.042 468.809 698.732 455.605Z"/>
	<path fill="#E35B59" d="M621.288 423.742C624.599 425.197 627.678 427.251 630.999 428.76C637.729 431.818 644.844 434.25 651.74 436.92C655.286 438.293 662.446 440.185 664.973 442.805C662.192 454.816 669.641 476.999 675.149 487.798C674.823 487.86 674.502 487.978 674.17 487.984C670.189 488.057 647.147 473.983 643.16 470.639C629.501 459.182 622.848 441.077 621.288 423.742Z"/>
	<path fill="#8FC9E1" d="M755.553 866.832C746.352 858.311 738.11 848.274 730.456 838.357C723.039 828.747 715.687 819.087 709.216 808.799C698.536 791.819 689.417 773.223 681.349 754.891C678.292 747.945 674.388 741.167 672.29 733.847C675.55 738.972 680.027 745.215 681.212 751.19C681.249 751.378 681.282 751.568 681.317 751.757C681.817 751.831 682.312 751.89 682.799 752.032C684.004 752.384 685.461 755.216 686.194 756.321C691.315 764.053 695.939 772.147 701.191 779.784C709.057 791.221 718.151 802.521 727.262 812.996C734.706 821.553 742.363 829.655 750.334 837.724C754.633 842.076 765.959 851.925 768.544 856.524C764.177 859.913 759.785 863.273 755.553 866.832Z"/>
	<path fill="#E35B59" d="M827.369 298.199C829.136 297.946 831.102 298.033 832.896 297.958C821.801 307.957 812.798 322.255 806.405 335.679C803.739 341.278 801.622 347.122 798.992 352.746C792.069 350.55 783.896 348.405 776.684 347.847C773.132 346.174 769.2 346.307 765.34 345.962C767.987 336.115 772.83 327.176 779.244 319.261C789.389 306.743 797.7 303.344 813.147 300.577C817.892 299.728 822.571 298.721 827.369 298.199Z"/>
	<path fill="#FBBF5C" d="M923.437 309.111C924.398 308.877 923.954 308.889 924.884 309.016C931.353 309.899 937.298 309.06 943.163 312.86C956.612 321.575 964.089 338.241 967.297 353.365C968.207 357.656 969.875 375.398 967.958 378.356C965.666 378.974 963.468 377.76 961.185 378.106C960.142 378.264 959.124 378.375 958.074 378.481C956.372 375.985 958.265 369.79 958.229 366.678C958.155 360.078 956.863 353.226 955.148 346.874C952.689 337.766 948.53 330.229 940.12 325.409L939.476 325.046C933.486 321.672 928.156 320.205 921.297 321.831C908.121 324.953 897.734 335.485 890.735 346.553C888.037 350.819 885.796 355.36 883.102 359.641C879.481 358.3 876.276 356.027 872.679 354.555C874.41 348.887 877.316 342.984 880.433 337.946C890.122 322.285 905.967 313.172 923.437 309.111Z"/>
	<path fill="#FBBF5C" d="M957.846 384.416C961.039 385.359 964.289 385.585 967.589 385.893C966.52 403.911 959.026 422.423 949.853 437.763C942.396 450.231 928.635 461.959 914.326 465.456C906.046 467.48 896.57 466.047 889.285 461.59C876.744 453.915 869.967 438.326 866.653 424.635C865.218 418.769 864.293 412.741 863.151 406.809C867.444 407.334 871.716 407.824 876.034 408.109C875.715 415.537 877.14 422.481 879.617 429.479C883.006 439.052 888.925 448.659 898.589 452.961C905.007 455.818 911.432 454.672 917.68 452.083C930.315 446.849 941.773 432.074 947.648 420.018C950.648 413.863 952.882 406.996 954.697 400.39C956.063 395.416 955.619 389.482 957.656 384.821C957.715 384.684 957.783 384.551 957.846 384.416Z"/>
	<path fill="#E35B59" d="M881.329 300.149C891.597 299.589 904.236 303.783 915.123 304.285C903.166 307.968 892.849 313.318 884.183 322.563C869.1 338.651 859.579 363.586 857.683 385.436C856.917 394.256 857.555 403.559 857.841 412.42C858.318 413.047 858.155 412.662 858.172 413.63C856.887 410.697 856.844 407.333 856.271 404.202C852.974 386.181 842.377 372.144 827.465 361.821C827.544 361.694 827.625 361.568 827.702 361.439L828.08 360.793C830.92 356.032 832.317 350.443 834.37 345.309C836.925 338.92 840.606 332.877 844.472 327.211C852.975 314.747 866.051 303.038 881.329 300.149Z"/>
	<path fill="#FEFEFB" d="M655.625 281.279Q657.925 281.505 660.149 282.133Q662.374 282.76 664.453 283.769C673.396 288.039 678.264 296.667 681.535 305.619C686.182 318.337 687.093 335.542 681.305 347.973C671.981 346.184 662.862 343.597 653.506 341.918C652.442 338.848 651.24 335.862 649.985 332.865C649.853 332.612 649.725 332.356 649.59 332.104C647.014 327.338 643.483 324.95 638.364 323.541C635.538 324.068 632.76 324.789 629.971 325.483C626.044 329.491 624.719 333.67 621.736 338.168L620.975 338.146C620.927 337.743 620.871 337.34 620.845 336.935C619.87 321.575 623.566 303.083 634.175 291.363Q634.681 290.794 635.215 290.251Q635.749 289.708 636.31 289.193Q636.87 288.678 637.457 288.192Q638.043 287.706 638.653 287.25Q639.263 286.794 639.895 286.37Q640.527 285.945 641.18 285.553Q641.833 285.161 642.505 284.803Q643.177 284.445 643.866 284.121Q644.555 283.797 645.259 283.508Q645.964 283.219 646.682 282.967Q647.401 282.714 648.131 282.498Q648.861 282.282 649.601 282.103Q650.341 281.924 651.089 281.783Q651.838 281.642 652.592 281.538Q653.347 281.435 654.105 281.37Q654.864 281.305 655.625 281.279Z"/>
	<path fill="#E35B59" d="M666.398 356.169C677.626 355.644 687.021 356.744 697.983 359.114C677.477 378.196 666.343 408.453 665.266 436.152C661.932 434.656 658.519 433.325 655.134 431.95C643.661 427.802 632.32 423.993 620.552 420.742C620.471 408.106 622.273 395.871 628.036 384.465C636.882 366.959 648.85 361.965 666.398 356.169Z"/>
	<path fill="#FEFEFB" d="M780.672 775.399C794.059 777.557 816.428 775.157 829.884 772.382C835.387 771.247 840.927 769.043 846.45 768.294L847.322 768.185C842.919 775.038 838.652 782.088 833.915 788.711C826.351 799.287 814.462 813.245 805.33 822.491C799.857 828.032 794.344 833.598 788.611 838.87C785.292 841.923 781.437 844.807 778.373 848.076C759.238 833.711 740.398 808.889 724.749 790.675Q726.397 791.429 728.093 792.066C733.853 794.221 740.803 796.221 746.896 797.195C749.274 797.575 752.003 796.897 754.441 796.947C762.694 797.115 786.482 800.656 793.15 797.081C794.003 796.624 793.706 796.86 794.031 795.809C791.113 788.724 784.951 781.768 780.672 775.399Z"/>
	<path fill="#E35B59" d="M760.972 354.213C770.738 353.346 785.13 356.474 794.597 358.989C787.552 363.651 780.108 367.301 773.238 372.368C755.899 385.158 741.079 412.334 736.999 433.245C735.165 442.645 735.164 452.153 733.774 461.59C722.249 457.281 710.498 453.502 698.818 449.634C702.047 422.143 706.136 397.31 724.605 375.286C734.138 363.918 745.889 355.488 760.972 354.213Z"/>
	<path fill="#FBBF5C" d="M812.095 365.262C818.249 365.816 823.606 367.496 828.731 370.991C840.48 379.002 847.129 394.83 849.682 408.326C851.357 417.182 851.563 426.004 851.127 434.974C849.924 459.694 842.88 480.988 828.859 501.441C819.663 514.856 806.982 524.703 790.755 527.65C788.489 528.061 785.935 528.455 783.652 528.042C779.791 527.342 766.448 521.526 762.823 518.982C748.17 508.7 743.129 488.697 740.234 472.024C744.831 471.566 749.355 470.449 753.925 469.759C755.171 472.871 755.292 476.742 755.789 480.056C757.209 489.507 761.191 498.39 767.885 505.309C773.332 510.938 779.439 514.338 787.47 514.367C797.941 514.404 808.333 507.714 815.445 500.506C826.106 489.231 830.987 478.195 836.553 464.096C837.854 460.8 838.436 456.839 839.239 453.365C843.599 434.521 844.017 415.529 835.524 397.632C832.122 390.462 825.88 382.428 818.192 379.789C810.305 377.081 802.31 378.174 794.955 381.758C771.642 393.118 760.133 421.887 755.842 446.04C755.031 450.61 756.436 457.733 754.472 461.794C753.482 463.84 743.236 464.623 740.46 465.487C740.935 440.057 749.813 408.135 767.051 388.81C778.419 376.066 794.825 366.262 812.095 365.262Z"/>
	<path fill="#FEFEFB" d="M524.218 276.662C530.002 276.192 536.047 277.699 541.053 280.619C551.93 286.964 560 300.252 563.153 312.181C566.802 325.985 566.944 347.393 559.258 359.955C553.404 369.524 533.914 379.261 523.196 381.608C530.31 372.885 532.371 365.711 532.045 354.399C530.486 345.052 527.85 335.405 520.07 329.402C516.137 326.368 511.673 324.719 506.668 325.415C501.342 326.156 497.123 329.498 494.081 333.793C491.34 337.665 487.684 345.324 488.706 350.114C488.765 350.388 488.858 350.655 488.902 350.932C489.007 351.59 488.953 352.036 489.13 352.718C489.181 352.918 489.242 353.115 489.298 353.313L489.064 353.314C487.177 351.46 486.466 346.559 486.078 343.952C483.596 327.294 485.905 307.461 496.351 293.686C504.058 283.523 511.465 278.438 524.218 276.662Z"/>
	<path fill="#FEFEFB" d="M923.221 329.038C923.383 329.022 923.545 328.999 923.707 328.989C928.908 328.676 934.267 330.981 938.118 334.39C946.534 341.842 949.512 356.429 950.091 367.183C951.271 389.13 944.856 417.038 929.8 433.567C922.596 441.475 916.365 444.626 905.702 445.13C904.272 445.005 903.02 444.799 901.653 444.34C895.262 442.197 890.658 437.47 887.809 431.453C879.617 414.157 881.53 386.33 887.827 368.633C889.526 363.859 891.946 359.42 894.466 355.038C902.051 341.849 909.427 335.587 923.221 329.038Z"/>
	<path fill="#8FC9E1" d="M939.509 351.003C940.804 351.3 941.468 351.384 942.316 352.539C945.751 357.221 944.695 379.102 944.025 385.396C942.39 400.761 934.464 421.152 921.973 430.961C917.733 434.291 912.285 436.536 906.819 435.673C904.906 435.371 902.969 434.711 901.886 433.008C901.347 432.16 901.276 431.208 901.598 430.25C902.778 426.739 906.188 425.716 909.241 424.252C905.457 419.444 903.475 415.027 901.744 409.192C900.683 405.508 899.682 400.876 900.635 397.112C901.58 396.003 901.495 396.032 902.941 395.875C905.882 398.146 907.448 410.373 909.814 414.665C911.37 417.486 913.459 419.484 915.782 421.649C929.346 402.75 931.922 380.971 931.292 358.379C929.748 359.583 927.968 361.253 926.185 362.039C925.121 362.509 924.181 362.607 923.13 362.138C923.13 361.575 923.092 361.515 923.311 360.899C925.088 355.9 934.871 352.534 939.509 351.003Z"/>
	<path fill="#FEFEFB" d="M805.885 386.09C809.716 385.549 813.618 386.383 817.004 388.222C825.203 392.677 830.104 402.412 832.453 411.058C838.153 432.035 831.53 462.199 820.881 480.764C814.381 492.097 803.992 503.119 791.068 506.657C786.831 506.029 782.092 505.548 778.36 503.329C771.101 499.011 765.857 490.215 763.687 482.251C757.253 458.631 762.597 434.398 774.649 413.553C781.552 401.615 792.069 389.714 805.885 386.09Z"/>
	<path fill="#8FC9E1" d="M807.354 391.57C811.332 391.5 814.467 392.154 817.577 394.765C824.013 400.167 825.762 410.554 826.479 418.464C828.601 441.858 824.953 466.326 809.389 484.789C806.272 488.488 801.883 492.707 796.802 492.985C794.681 493.102 793.097 492.227 791.542 490.85C785.661 485.639 784.444 475.841 783.978 468.416C784.017 468.282 784.051 468.147 784.095 468.015C784.601 466.498 784.876 465.823 786.292 465.151C790.806 468.561 788.647 480.148 793.35 483.2C794.237 483.775 795.097 483.977 796.095 483.542C799.661 481.991 803.312 472.478 804.829 468.967C811.073 454.51 816 428.381 810.121 413.436C807.668 414.747 805.712 417.019 803.258 418.284C802.129 418.867 801.543 418.917 800.389 418.474L800.001 417.432C801.53 412.248 810.156 406.496 814.309 403.048C814.251 402.922 814.196 402.794 814.135 402.669C814.035 402.46 813.927 402.255 813.828 402.045C812.118 398.407 808.837 396.162 806.974 392.71L807.354 391.57Z"/>
	<path fill="#FBBF5C" d="M626.809 347.214C637.287 346.292 648.391 348.355 658.642 350.437C651.904 352.702 646.155 355.118 640.257 359.203C626.13 368.99 618.286 383.648 615.203 400.364C608.566 405.141 601.906 408.958 594.133 411.537C565.105 421.169 528.046 422.927 500.116 408.923C505.291 418.088 509.267 428.111 513.458 437.763Q519.009 450.377 525.035 462.77C533.579 480.523 543.619 498.375 555.186 514.352C557.816 517.986 560.862 521.302 563.572 524.877C568.642 531.567 573.574 538.368 579.533 544.318C584.916 549.693 591.207 554.396 597.149 559.141C603.908 564.539 610.723 570.131 618.976 573.021C615.432 568.127 612.044 563.259 609.279 557.864C599.451 538.688 592.853 507.191 590.837 485.562C589.914 475.663 589.807 465.493 589.559 455.555Q589.372 445.922 589.519 436.289C589.569 433.214 589.918 430.162 589.654 427.09C589.64 426.928 589.622 426.766 589.607 426.604C592.575 425.734 595.311 424.524 598.126 423.258C600.678 422.082 603.108 420.69 605.56 419.323C605.173 432.081 603.983 444.542 604.36 457.381C605.163 484.8 610.946 513.759 617.038 540.479C620.254 554.584 626.921 569.466 628.27 583.786C621.307 582.037 614.745 579.961 608.061 577.327C587.343 569.164 564.508 554.052 548.412 538.638C528.149 519.234 508.701 490.127 497.57 464.36Q494.366 457.002 491.646 449.452Q488.925 441.902 486.7 434.191Q484.474 426.481 482.753 418.642Q481.032 410.804 479.822 402.87C479.364 399.791 478.078 394.718 479.223 391.829C483.356 391.844 487.544 393.375 491.644 393.93C498.848 394.906 507.84 394.398 514.969 393.333C527.283 391.494 541.27 386.056 551.745 379.24C556.044 376.443 559.985 373.099 564.252 370.246C584.382 356.793 602.173 348.165 626.809 347.214Z"/>
	<path fill="#FEFEFB" d="M856.198 460.383C876.009 468.076 893.96 477.137 915.896 474.047C915.976 486.215 918.359 499.309 919.393 511.554C919.713 515.35 920.557 519.953 919.837 523.676L919.366 523.972Q917.899 525.961 916.357 527.892C907.318 539.116 895.667 548.847 883.986 557.203C874.849 563.739 865.605 570.278 855.625 575.485C832.13 587.742 799.31 596.738 772.988 599.353C741.276 602.503 716.346 601.263 685.401 593.586C681.384 592.589 675.036 591.82 671.9 589.246C673.001 582.986 675.457 577.415 677.535 571.442C679.945 564.518 682.228 557.422 684.275 550.38C686.577 542.458 688.761 534.225 690.409 526.147C691.774 519.453 692.643 512.671 694.134 505.999C700.734 508.109 707.187 510.764 713.709 513.112C723.536 516.65 733.449 519.982 743.228 523.647C754.71 527.95 766.549 532.715 778.522 535.475C790.152 538.154 803.942 534.594 813.911 528.361C837.92 513.347 849.89 487.016 856.198 460.383Z"/>
	<path fill="#E35B59" d="M161.004 460.711C179.252 458.529 208.101 462.273 226.54 465.952C301.919 480.99 359.551 516.034 421.287 560.317C431.639 567.743 442.413 574.661 452.557 582.36C457.441 586.067 461.974 590.197 466.839 593.927C474.799 600.031 505.144 622.716 509.261 628.891C509.019 629.07 508.831 629.369 508.536 629.428C507.47 629.641 494.443 620.719 492.657 619.582C476.01 608.983 459.59 598.821 442.205 589.476C434.332 585.243 426.684 580.497 418.657 576.567C372.801 554.119 320.292 535.252 269.891 527.042C258.175 525.134 246.86 523.557 234.972 523.402C203.783 523.098 157.796 528.326 132.277 547.616C125.059 553.073 116.7 561.812 115.621 571.173C114.61 579.949 118.117 587.84 123.324 594.636C119.07 600.62 116.244 606.785 113.055 613.364C108.216 608.739 103.781 601.869 100.629 595.964C96.2849 587.825 91.6957 575.134 94.6719 565.958C101.549 544.755 136.459 526.582 156.3 520.019C168.617 515.945 182.218 513.497 195.013 511.348C201.008 510.341 211.536 511.51 216.585 508.955C216.499 508.278 216.618 507.917 216.065 507.434C213.115 504.862 203.495 506.04 199.808 506.387C163.221 509.827 126.534 521.029 99.0628 546.295C95.5333 549.541 91.9273 552.544 88.8439 556.248C74.4851 536.693 57.0245 518.664 50.2899 494.597C66.5718 482.087 97.5544 469.674 117.762 465.618C132.154 462.73 146.4 461.74 161.004 460.711Z"/>
	<path fill="#203872" d="M125.012 476.201C132.637 475.979 142.232 478.073 149.182 481.131C151.902 482.328 156.143 484.212 157.003 487.343C157.499 489.15 156.435 491.198 155.477 492.667C147.67 504.646 131.467 515.574 117.392 518.213C106.134 519.721 95.7094 518.022 85.9693 512.148C85.2052 510.611 84.3484 508.962 84.1016 507.248C83.3428 501.976 86.6536 496.456 89.841 492.505C99.4223 480.626 110.377 477.693 125.012 476.201Z"/>
	<path fill="#2F3352" d="M111.058 491.185C110.873 490.416 110.647 489.811 110.34 489.089C107.16 487.978 105.249 490.562 102.295 491.409L101.842 489.974L101.81 490.772C102.255 489.483 103.129 488.597 104.233 487.802C109.322 484.135 115.602 483.677 121.515 482.931C123.57 482.672 125.5 481.896 127.591 482.236L128.038 483.054L127.266 484.91L127.994 485.531C128.65 484.317 129.163 483.517 130.18 482.548L131.23 482.613C132.012 483.448 131.695 482.979 132.179 484.022C131.053 485.834 128.695 486.009 127.236 487.539C127.053 487.73 126.881 487.932 126.703 488.129C124.1 486.299 122.29 485.604 119.069 486.096C115.833 486.589 112.929 488.547 111.058 491.185Z"/>
	<path fill="#FBBF5C" d="M134.899 485.027C140.622 485.818 145.052 487.019 150.106 489.873C145.653 496.764 138.1 502.243 131.7 507.271C129.017 509.658 126.455 511.432 122.796 511.568C124.736 507.272 132.588 506.49 135.322 501.656C138.279 496.428 136.283 490.39 134.899 485.027Z"/>
	<path fill="#FBBF5C" d="M100.981 491.019C101.949 492.107 101.982 500.775 103.71 504.137C104.733 506.126 106.653 507.979 108.142 509.65C110.908 510.431 113.409 511.722 115.98 512.984C113.228 513.203 110.513 513.384 107.751 513.402C103.582 512.564 94.6826 511.804 92.1792 508.058C91.3878 506.874 91.2949 505.445 91.5824 504.091C92.5336 499.613 97.2516 493.525 100.981 491.019Z"/>
	<path fill="#FBBF5C" d="M111.058 491.185C112.929 488.547 115.833 486.589 119.069 486.096C122.29 485.604 124.1 486.299 126.703 488.129C128.628 490.788 130.097 493.279 129.563 496.686C129.136 499.416 127.44 501.663 125.189 503.196C122.349 505.131 118.517 506.119 115.118 505.401C113.234 505.002 111.593 504.01 110.616 502.315C108.709 499.006 109.939 494.721 111.003 491.337C111.019 491.286 111.04 491.236 111.058 491.185Z"/>
	<path fill="#203872" d="M117.931 489.475C118.072 489.475 118.213 489.47 118.354 489.475C120.881 489.549 123.077 489.767 124.807 491.824C125.79 492.992 126.209 494.414 125.972 495.927C125.548 498.628 123.718 499.998 121.548 501.367C120.316 501.563 118.644 501.729 117.413 501.491C116.115 501.24 115.155 500.397 114.481 499.29C113.402 497.522 113.376 495.652 114.002 493.72C114.736 491.457 115.891 490.571 117.931 489.475Z"/>
	<path fill="#8FC9E1" d="M650.131 635.736C654.413 629.269 658.353 622.746 661.432 615.607C663.43 610.977 664.702 605.642 667.374 601.382C670.051 600.284 693.797 607.713 698.986 608.666C719.71 612.47 742.22 613.16 763.225 611.451C771.165 610.805 779.232 610.193 787.087 608.845C836.394 600.38 886.871 577.02 919.664 538.328C920.004 548.892 919.967 559.907 919.011 570.441C918.308 578.181 916.914 585.826 916.164 593.541C915.558 598.122 915.186 603.546 913.228 607.778C909.579 633.132 902.115 658.009 892.948 681.906C891.187 686.497 889.646 691.734 887.369 696.065C886.05 700.107 884.8 704.839 882.583 708.491C877.274 718.662 872.227 729.135 866.41 739.021C863.204 744.47 859.135 749.575 856.139 755.093C826.405 765.271 794.949 767.527 764.56 759.008C763.089 758.596 760.352 757.542 759.054 758.473C758.905 763.412 765.888 773.606 768.878 777.801L768.56 778.125C767.785 778.902 767.155 779.425 766.214 779.978C765.127 780.616 764.953 781.002 764.373 782.073C764.289 783.804 764.363 785.402 764.546 787.124C746.63 785.373 728.604 782.867 712.212 774.986C706.977 766.288 700.449 758.365 695.083 749.701C673.87 715.451 655.503 676.07 650.131 635.736Z"/>
	<path fill="#203872" d="M887.369 696.065C886.05 700.107 884.8 704.839 882.583 708.491C875.251 708.275 863.248 710.623 857.281 705.333L857.266 704.623C860.199 702.034 866.814 702.292 870.694 701.248C876.326 699.732 881.752 697.609 887.369 696.065Z"/>
	<path fill="#203872" d="M913.228 607.778C901.839 617.669 888.949 623.853 874.424 627.605C871.461 628.371 868.085 629.409 865.022 629.624C862.802 629.78 853.558 630.273 852.358 629.244C858.173 625.608 865.586 624.207 871.876 621.587C888.335 614.731 902.87 605.369 916.164 593.541C915.558 598.122 915.186 603.546 913.228 607.778Z"/>
	<path fill="#FEFEFB" d="M267.915 155.972C306.652 125.816 360.697 104.881 408.008 92.9574C414.134 91.4135 420.178 89.5803 426.384 88.3668C446.4 84.4531 466.703 82.9243 486.983 81.3249C504.679 79.9292 527.069 79.4306 544.673 81.624C561.41 83.7094 578.357 85.3291 594.888 88.7566C603.449 90.5316 611.984 93.0727 620.424 95.3788C673.289 109.822 716.067 129.962 759.759 163.341C768.369 169.919 777.163 176.659 785.127 184.01C789.224 187.791 793.034 191.921 796.99 195.851C809.329 208.11 818.263 217.454 829 231.292C842.219 248.329 857.149 267.511 866.238 286.988C860.828 286.8 855.552 286.49 850.141 286.93C846.573 287.221 843.532 289.325 840.096 290.082C837.452 290.664 817.939 291.934 814.917 291.652C814.656 291.628 814.393 291.613 814.132 291.584C807.095 290.811 790.895 279.544 783.416 276.12C777.771 280.431 772.327 289.093 768.699 295.243C766.621 298.766 765.06 302.286 762.494 305.518C754.398 301.121 746.055 295.716 736.882 293.945C729.226 302.371 724.25 313.548 716.104 321.507C709.031 282.335 696.082 241.979 672.902 209.173C667.47 201.485 661.118 194.382 654.865 187.363C643.685 174.815 630.568 162.416 616.742 152.785C573.554 122.7 522.958 104.867 469.827 108.215C459.185 108.886 448.245 110.818 437.754 112.669C423.153 115.246 408.226 120.857 394.626 126.624Q390.415 128.456 386.254 130.398Q382.093 132.34 377.985 134.392Q373.877 136.443 369.824 138.603Q365.772 140.763 361.778 143.029Q357.784 145.295 353.851 147.666Q349.919 150.037 346.05 152.511Q342.182 154.985 338.38 157.56Q334.578 160.136 330.846 162.811Q327.114 165.486 323.454 168.259Q319.793 171.032 316.208 173.901Q312.622 176.77 309.114 179.733Q305.606 182.696 302.177 185.75Q298.748 188.805 295.401 191.949Q292.055 195.093 288.792 198.324Q285.53 201.556 282.354 204.873Q279.178 208.189 276.091 211.589C271.207 216.865 266.702 222.524 262.05 228.005C251.978 239.868 241.974 252.017 233.086 264.807Q225.883 275.324 219.126 286.133Q212.369 296.942 206.071 308.024Q199.772 319.106 193.944 330.443Q188.115 341.779 182.766 353.35Q177.417 364.92 172.558 376.705Q167.698 388.489 163.336 400.467Q158.974 412.444 155.117 424.594Q151.261 436.744 147.916 449.044C128.615 450.998 92.003 459.28 75.5526 468.014C76.1166 460.951 76.567 453.811 77.5994 446.798C86.2189 388.255 114.62 316.454 146.675 266.727C154.362 254.801 163.643 244.307 172.111 233.016C172.375 232.789 172.639 232.562 172.916 232.351C178.118 228.399 205.102 233.489 211.848 234.395C213.478 232.912 214.951 231.204 216.463 229.598C228.444 220.233 240.823 207.6 251.68 196.759C254.782 194.171 257.805 191.55 260.195 188.265C265.295 181.259 269.276 164.411 267.915 155.972Z"/>
	<path fill="#FEFEFB" d="M498.312 169.715C520.335 168.788 538.703 170.367 559.628 177.849C567.801 180.771 575.607 184.188 582.897 188.973C585.667 190.791 598.528 202.263 600.304 202.483C601.899 200.566 601.917 197.484 602.014 195.096C604.455 192.217 607.175 189.363 610.082 186.952C614.324 183.433 622.473 178.418 628.098 179.207C636.18 180.342 655.356 206.784 660.348 213.744C651.284 213.305 644.351 216.077 637.631 222.09C633.782 225.535 622.998 237.869 623.059 242.886C623.071 243.824 623.008 243.463 623.775 244.225L624.943 243.927C631.103 237.398 640.012 230.965 649.008 229.363C656.119 228.097 663.654 229.151 669.598 233.488C683.175 243.394 697.96 293.522 701.289 311.02C703.66 323.484 704.357 335.966 706.278 348.435L703.403 351.824C699.966 351.269 693.336 351.394 690.823 348.883C692.43 341.282 693.336 334.078 693.332 326.302C693.321 309.605 688.025 291.077 675.818 279.072C669.797 273.151 662.326 269.78 653.793 270.017C644.905 270.263 637.007 274.406 630.935 280.766C620.593 291.598 614.761 307.37 613.666 322.149C613.258 327.646 613.616 333.274 613.709 338.785C610.707 341.659 603.532 341.467 599.472 342.637C589.768 345.436 579.924 350.318 571.129 355.266C573.581 345.24 574.952 336 574.472 325.606C573.601 306.737 566.575 287.938 552.324 275.185C544.75 268.408 534.282 263.401 523.928 264.012C512.421 264.692 500.61 271.436 493.151 280.057C481.572 293.44 475.789 313.771 477.038 331.267C478.196 347.474 485.925 370.59 499.869 380.183C503.28 382.53 509.062 382.159 511.998 384.705C503.657 387.322 486.073 387.178 478.013 383.696C476.703 383.131 475.262 382.406 473.872 382.083C472.844 381.845 472.267 382.047 471.437 382.658C469.836 393.375 473.059 406.163 474.278 416.943C476.813 430.924 480.99 445.654 486.224 458.873C495.404 482.06 519.436 526.209 538.967 541.237C535.929 549.088 531.598 556.327 528.027 563.931C523.314 573.967 519.262 584.395 515.436 594.798C513.79 599.274 509.658 615.167 507.454 617.514L506.517 617.325C491.208 602.348 474.59 589.46 457.626 576.448C447.93 569.01 438.339 561.4 428.363 554.339C423.524 550.914 396.647 533.925 395.713 531.499C393.839 526.633 398.13 503.131 399.506 497.792C399.888 496.314 400.607 495.103 401.122 493.691C401.594 492.395 401.594 491.735 401.033 490.513C395.052 491.626 380.856 498.867 375.27 502.081C376.156 496.974 376.018 491.671 376.577 486.511Q377.049 482.188 377.79 477.902Q378.531 473.617 379.537 469.386Q380.543 465.155 381.81 460.995Q383.078 456.835 384.602 452.762C386.749 447.001 389.706 441.328 392.553 435.884C394.432 432.29 397.679 427.906 398.484 423.954C398.691 422.941 398.746 423.339 398.235 422.517C396.339 422.224 394.281 423.284 392.371 423.572C389.468 424.011 386.5 424.153 383.626 424.775C373.009 427.076 363.183 432.29 353.7 437.389C354.605 433.038 355.218 428.7 356.419 424.405C363.735 398.244 378.399 373.802 395.131 352.604C380.481 353.655 367.163 355.589 353.6 361.537C374.225 305.329 409.637 257.179 455.458 218.819C464.95 210.872 476.47 202.331 487.088 195.977C490.1 194.174 497.324 191.551 498.755 188.65C496.739 183.662 483.044 174.871 478.108 171.858L498.312 169.715Z"/>
	<path fill="#203872" d="M511.693 204.66C518.269 203.506 526.285 206.165 531.793 209.75C540.878 215.664 549.107 227.831 551.324 238.394C544.927 233.77 538.88 228.263 531.875 224.583C523.126 219.987 513.17 218.366 503.608 221.263C484.237 227.059 483.427 231.103 469.704 243.478L469.108 243.377L468.563 242.314C468.91 237.729 472.391 232.642 475.108 229.043C484.662 216.383 495.51 206.855 511.693 204.66Z"/>
	<path fill="#8FC9E1" d="M469.106 119.645L473.385 119.628C491.963 119.575 511.237 120.994 529.409 125.02C559.016 131.578 600.636 151.447 622.362 173.053C609.043 176.824 605.117 180.109 597.066 191.184C584.265 176.02 557.461 167.469 538.434 163.341C516.132 158.503 493.485 160.799 471.351 165.06C467.752 165.753 462.031 166.163 459.099 168.223C458.159 168.883 458.155 169.057 457.987 170.121C459.444 171.664 462.975 172.595 464.921 173.668C471.428 177.255 479.425 181.83 484.583 187.29C484.707 187.421 484.825 187.557 484.947 187.69C473.246 195.893 460.855 203.266 449.748 212.273Q447.278 214.3 444.846 216.373Q442.414 218.445 440.021 220.562Q437.628 222.679 435.274 224.839Q432.92 227 430.606 229.203Q428.292 231.406 426.019 233.652Q423.746 235.898 421.515 238.185Q419.284 240.472 417.095 242.8Q414.906 245.128 412.761 247.495Q410.615 249.863 408.514 252.27Q406.412 254.676 404.355 257.121Q402.298 259.566 400.287 262.049Q398.275 264.531 396.31 267.05Q394.344 269.569 392.425 272.124Q390.506 274.679 388.635 277.269Q386.763 279.858 384.94 282.482Q383.116 285.106 381.341 287.763Q379.566 290.419 377.84 293.108Q376.115 295.797 374.439 298.518Q372.763 301.238 371.137 303.989Q369.512 306.739 367.937 309.52Q366.362 312.3 364.839 315.108Q363.315 317.917 361.844 320.753Q360.373 323.59 358.954 326.452Q357.535 329.315 356.169 332.204Q354.803 335.092 353.49 338.005Q352.178 340.918 350.919 343.855Q349.66 346.792 348.456 349.751Q347.251 352.711 346.102 355.692Q344.952 358.673 343.857 361.675Q342.762 364.677 341.723 367.698Q340.684 370.719 339.7 373.759Q338.716 376.799 337.789 379.857C341.043 378.271 344.044 376.028 347.205 374.232C356.501 368.948 365.14 365.712 375.51 363.226C362.231 383.835 351.66 404.983 345.835 428.941C343.649 437.93 342.72 447.152 340.33 456.091C351.407 449.144 355.488 443.098 369.14 438.014C372.418 436.498 380.317 432.105 383.748 433.092C383.939 434.462 382.912 435.472 382.232 436.649C379.215 441.88 376.878 447.203 375.16 452.99C369.137 473.276 365.703 492.831 368.385 514.014C368.015 513.813 367.647 513.605 367.262 513.432C361.543 510.859 356.407 507.422 351.036 504.19C343.039 499.378 335.136 494.707 326.789 490.515C309.446 481.805 291.332 473.317 273.06 466.763C266.586 464.441 259.764 462.792 253.135 460.96C233.92 455.646 214.937 451.389 195.061 449.392C183.638 448.244 171.971 448.591 160.491 447.969C164.23 432.014 170.516 416.389 176.425 401.121C185.675 377.218 195.24 353.415 207.348 330.777C246.349 257.861 295.946 195.033 368.594 153.303C382.914 145.078 396.916 137.71 412.452 131.98C424.232 127.635 436.519 124.177 448.948 122.292C455.238 121.338 462.681 121.701 468.685 119.789C468.826 119.744 468.966 119.693 469.106 119.645Z"/>
	<path fill="#203872" d="M317.494 236.295L319 236.576L319.322 237.177C311.598 246.605 302.63 255.953 293.627 264.164L293.201 264.622C292.627 263.538 292.745 263.292 292.989 262.125C295.4 250.563 308.163 242.102 317.494 236.295Z"/>
	<path fill="#203872" d="M300.911 317.85L301.414 318.328C301.114 321.366 288.914 336.872 286.099 340.048C283.232 343.281 280.055 346.279 276.992 349.327C276.287 348.07 275.849 347.171 276.284 345.748C278.491 338.512 294.242 321.682 300.911 317.85Z"/>
	<path fill="#203872" d="M248.692 392.824L249.402 393.075C249.755 393.601 250.076 393.776 249.932 394.454C248.656 400.472 224.973 418.491 218.79 422.63C218.546 422.534 218.281 422.481 218.059 422.342C217.103 421.744 217.134 421.054 217 420.058C219.342 412.528 241.519 396.766 248.692 392.824Z"/>
	<path fill="#203872" d="M248.926 362.796C249.968 363.311 250.203 363.368 250.8 364.344C250.754 364.474 250.72 364.609 250.662 364.734C249.561 367.099 224.69 392.869 221.541 395.656C220.501 396.576 219.376 397.107 218.092 397.602C217.274 397.28 216.74 397 216.081 396.416C215.995 395.944 215.917 395.722 216.037 395.198C216.657 392.489 219.676 389.516 221.469 387.442C229.837 377.761 238.114 369.789 248.926 362.796Z"/>
	<path fill="#203872" d="M273.606 300.357C273.919 300.466 274.281 300.805 274.55 301.005C274.31 304.152 244.561 336.082 239.469 340.739L238.824 340.266C238.906 338.252 238.96 335.953 240.324 334.352C242.711 331.55 244.222 327.987 246.449 325.012C253.99 314.938 262.894 306.87 273.606 300.357Z"/>
	<path fill="#FEFEFB" d="M544.268 546.622C566.33 565.566 586.249 579.183 614.445 587.399C619.353 588.829 624.569 590.636 629.702 590.855C631.913 590.95 634.871 591.825 636.999 591.416C637.536 591.312 638.28 590.959 638.576 590.462C639.348 589.164 639.471 587.197 639.291 585.719C638.839 582.01 637.451 578.079 636.441 574.48L629.243 549.734C625.528 536.706 622.682 523.211 619.756 509.972C617.479 499.666 616.617 488.743 615.463 478.255C613.474 460.185 611.566 442.394 611.5 424.19C611.493 422.153 611.099 418.945 611.64 416.997C612.125 415.247 613.439 413.507 614.407 411.98C614.464 420.569 615.068 429.604 616.34 438.105C619.902 461.916 637.417 479.485 658.575 489.327C665.669 492.626 674.857 495.363 681.04 500.13C681.211 500.261 681.375 500.4 681.542 500.535C678.926 510.983 677.324 521.652 674.79 532.096C673.287 538.297 671.263 544.396 669.6 550.559C667.878 556.939 666.603 563.455 664.742 569.795C660.317 584.869 652.946 605.149 646.047 619.199C640.977 629.522 633.976 641.26 627.906 651.019C621.685 661.022 613.903 669.645 607.488 679.447C626.258 672.138 631.437 662.214 643.257 647.371C644.427 652.884 644.27 658.765 644.882 664.372C646.012 674.745 647.852 685.781 650.274 695.953C652.421 704.969 655.623 713.805 658.552 722.592Q661.316 731.124 664.459 739.524Q667.601 747.924 671.114 756.175Q674.628 764.427 678.506 772.513Q682.384 780.6 686.619 788.505Q690.853 796.411 695.436 804.12Q700.02 811.829 704.942 819.326Q709.864 826.823 715.116 834.093Q720.367 841.362 725.938 848.391C732.641 856.908 739.417 865.41 747.276 872.906C698.422 904.706 644.085 927.173 586.258 935.776C579.753 936.744 568.913 939.822 562.613 938.86C549.804 917.598 538.011 896.568 528.825 873.436C526.94 868.69 525.73 863.709 524.066 858.884C500 789.105 494.255 710.525 511.7 638.538C523.676 645.902 535.104 655.347 548.019 660.936C536.13 649.306 526.23 635.792 514.302 624.094C517.021 616.951 518.826 609.386 521.304 602.13C526.277 587.566 531.814 574.044 538.259 560.08C540.31 555.637 541.679 550.786 544.268 546.622Z"/>
	<path fill="#8FC9E1" d="M100.755 815.112C85.6673 773.738 88.6075 721.59 100.196 679.598C107.068 654.699 117.293 630.534 128.081 607.113C134.208 593.814 158.029 554.063 167.96 544.83C169.594 543.31 171.603 542.336 173.69 541.595C180.582 539.147 188.729 538.385 195.93 537.246C274.329 524.841 369.277 562.348 438.398 596.935C461.161 608.325 481.977 622.724 504.18 635.003Q502.999 639.574 501.929 644.173Q500.86 648.772 499.902 653.395Q498.945 658.018 498.1 662.664Q497.255 667.309 496.523 671.973Q495.791 676.638 495.173 681.318Q494.555 685.999 494.05 690.694Q493.546 695.388 493.156 700.094Q492.766 704.799 492.49 709.512Q492.214 714.226 492.053 718.944Q491.892 723.663 491.846 728.384Q491.799 733.105 491.868 737.826Q491.936 742.547 492.119 747.265Q492.302 751.983 492.6 756.695Q492.898 761.407 493.31 766.111Q493.722 770.814 494.248 775.506Q494.774 780.198 495.414 784.876Q496.054 789.554 496.808 794.215Q497.561 798.876 498.428 803.517Q499.294 808.158 500.273 812.777Q501.252 817.396 502.343 821.99Q503.434 826.583 504.637 831.149Q505.839 835.715 507.152 840.25Q508.465 844.786 509.888 849.287Q511.31 853.789 512.842 858.255Q514.374 862.722 516.013 867.149Q517.653 871.577 519.4 875.963Q521.147 880.35 523 884.692Q524.853 889.035 526.81 893.331Q528.768 897.628 530.83 901.875Q532.892 906.123 535.056 910.319Q537.22 914.515 539.486 918.658Q541.751 922.8 544.117 926.886C546.687 931.299 549.559 935.417 552.67 939.464C531.457 941.292 510.424 940.568 489.247 938.952C478.889 929.102 470.345 916.838 461.085 905.956C393.704 826.777 346.355 740.225 323.243 638.453C321.023 628.678 317.871 618.66 316.305 608.813C314.59 612.964 313.133 616.897 312.645 621.397C312.119 626.25 312.623 631.272 312.999 636.126C315.828 672.686 331.004 712.917 345.061 746.726C348.764 755.635 353.288 764.106 357.581 772.738C361.173 779.962 364.507 787.429 368.478 794.449C371.908 800.511 375.88 806.241 379.489 812.191C384.296 820.118 388.557 828.314 393.616 836.103C409.676 860.83 427.943 883.926 446.307 906.955C457.051 920.427 469.523 932.603 479.719 946.508C456.808 940.47 436.024 931.685 415.77 919.376C411.332 916.679 406.712 914.15 402.668 910.874C405.644 918.593 409.152 926.202 412.842 933.608C415.445 938.833 418.566 943.99 420.446 949.525Q415.958 948.079 411.537 946.444Q407.115 944.808 402.766 942.986Q398.418 941.163 394.151 939.158Q389.884 937.152 385.707 934.966Q381.529 932.781 377.448 930.42Q373.368 928.058 369.391 925.525Q365.414 922.993 361.549 920.293Q357.684 917.593 353.937 914.731C346.045 908.703 338.628 901.758 330.541 896.04C333.001 911.846 335.615 926.044 340.795 941.289C311.7 926.314 280.058 895.921 261.886 868.905C258.189 886.714 263.221 905.292 266.483 922.796C248.89 910.435 233.571 894.233 221.361 876.547C216.052 868.856 211.472 860.625 205.905 853.122C200.645 864.771 201.186 878.575 201.982 891.072C202.053 892.2 202.635 895.053 201.601 895.488L201.968 896.093C199.199 895.665 185.311 878.574 182.789 875.154C170.911 859.042 162.018 839.82 153.486 821.76C145.681 835.491 143.283 847.737 141.797 863.283C129.833 842.163 123.721 828.763 118.708 804.752C117.629 799.579 116.314 794.329 115.993 789.048C109.307 796.355 104.5 805.982 100.755 815.112Z"/>
	<path fill="#203872" d="M134.708 777.239C135.802 777.485 136.373 777.442 137.067 778.399C138.5 780.373 145.463 804.495 145.763 807.276C145.837 807.958 145.678 808.516 145.506 809.165C145.034 808.988 144.926 808.962 144.438 808.707C141.136 806.981 138.695 799.222 137.586 795.829C136.242 791.715 132.635 781.326 134.708 777.239Z"/>
	<path fill="#203872" d="M177.629 799.635C179.017 799.807 179.553 799.643 180.432 800.825C183.062 804.36 193.156 826.833 192.633 830.409C192.32 830.412 192.006 830.438 191.693 830.42C190.113 830.325 189.052 829.076 188.197 827.877C184.81 823.131 176.773 805.266 177.629 799.635Z"/>
	<path fill="#203872" d="M295.641 852.14C296.606 852.226 297.13 852.324 297.953 852.844C300.267 856.398 302.402 860.061 304.834 863.538C307.718 867.662 311.275 871.871 313.605 876.296C314.286 877.588 314.767 878.615 314.739 880.108C314.457 880.077 314.174 880.056 313.894 880.014C310.329 879.487 305.971 874.133 303.84 871.335C300.137 866.473 294.769 858.501 295.641 852.14Z"/>
	<path fill="#203872" d="M365.608 881.644C369.435 883.131 387.093 898.487 389.169 902.005C390.006 903.423 389.763 903.727 389.382 905.247C388.886 905.323 388.299 905.473 387.779 905.383C382.772 904.516 372.595 893.601 369.463 889.759C367.283 887.084 365.232 885.224 365.608 881.644Z"/>
	<path fill="#203872" d="M223.023 820.296C225.627 823.514 227.477 828.439 229.487 832.154Q234.943 842.192 240.832 851.983C240.607 853.366 239.85 853.547 238.782 854.366C231.949 848.612 222.576 832.287 220.618 823.598C220.857 822.053 221.937 821.302 223.023 820.296Z"/>
</svg>
